<svg width="50" height="50" viewBox="0 0 50 50" fill="none" xmlns="http://www.w3.org/2000/svg">
<path d="M25 0C11.193 0 0 11.193 0 25C0 38.807 11.193 50 25 50C38.807 50 50 38.807 50 25C49.9845 11.1995 38.8005 0.0154623 25 0ZM25 48.3333C12.1134 48.3333 1.66667 37.8866 1.66667 25C1.66667 12.1134 12.1134 1.66667 25 1.66667C37.8866 1.66667 48.3333 12.1134 48.3333 25C48.3187 37.8805 37.8805 48.3187 25 48.3333Z" fill="white"/>
<path d="M25 5C13.9543 5 5 13.9543 5 25C5 36.0457 13.9543 45 25 45C36.0457 45 45 36.0457 45 25C44.987 13.9596 36.0404 5.01302 25 5ZM25.8333 43.3126V40.8333C25.8333 40.3731 25.4602 40 25 40C24.5398 40 24.1667 40.3731 24.1667 40.8333V43.3126C14.7021 42.8707 7.12931 35.2978 6.68742 25.8333H9.16667C9.62687 25.8333 10 25.4602 10 25C10 24.5398 9.62687 24.1667 9.16667 24.1667H6.68742C7.12931 14.7021 14.7021 7.12931 24.1667 6.68742V9.16667C24.1667 9.62687 24.5398 10 25 10C25.4602 10 25.8333 9.62687 25.8333 9.16667V6.68742C35.2979 7.12931 42.8707 14.7021 43.3126 24.1667H40.8333C40.3731 24.1667 40 24.5398 40 25C40 25.4602 40.3731 25.8333 40.8333 25.8333H43.3126C42.8707 35.2978 35.2979 42.8707 25.8333 43.3126Z" fill="white"/>
<path d="M35.8333 24.167H27.3466C26.9946 23.1717 26.0555 22.5048 25 22.5003C24.6281 22.5016 24.2615 22.587 23.9274 22.7502L23.9225 22.7428L14.7559 13.5762C14.4287 13.2604 13.9091 13.2649 13.5876 13.5864C13.2662 13.9078 13.2617 14.4274 13.5775 14.7546L22.7441 23.9212L22.7515 23.9261C22.5879 24.2606 22.5016 24.628 22.5 25.0003C22.4976 26.2166 23.3728 27.257 24.5715 27.4633C25.7703 27.6692 26.9425 26.9807 27.3466 25.8337H35.8333C36.2935 25.8337 36.6667 25.4605 36.6667 25.0003C36.6667 24.5401 36.2935 24.167 35.8333 24.167ZM25 25.8337C24.5398 25.8337 24.1667 25.4605 24.1667 25.0003C24.1667 24.5401 24.5398 24.167 25 24.167C25.4602 24.167 25.8333 24.5401 25.8333 25.0003C25.8333 25.4605 25.4602 25.8337 25 25.8337Z" fill="white"/>
</svg>
