<svg width="50" height="51" viewBox="0 0 50 51" fill="none" xmlns="http://www.w3.org/2000/svg">
<path d="M11.2135 13.8979H7.89361C7.54799 13.8979 7.26862 14.1773 7.26862 14.5229C7.26862 14.8686 7.54799 15.1479 7.89361 15.1479H11.2135C11.5592 15.1479 11.8385 14.8686 11.8385 14.5229C11.8385 14.1773 11.5592 13.8979 11.2135 13.8979Z" fill="white"/>
<path d="M13.5116 11.5601H5.77302C5.4274 11.5601 5.14803 11.8394 5.14803 12.185C5.14803 12.5307 5.4274 12.81 5.77302 12.81H13.5116C13.8573 12.81 14.1366 12.5307 14.1366 12.185C14.1366 11.8394 13.8573 11.5601 13.5116 11.5601Z" fill="white"/>
<path d="M48.9548 9.42149C49.2873 9.51773 49.6323 9.32399 49.7272 8.99149C50.4454 6.47091 49.7216 3.77346 47.8373 1.95287C45.1836 -0.610837 40.823 -0.655836 38.1187 1.85037C36.125 3.69846 35.3675 6.46466 36.1431 9.06899C36.6769 10.8627 36.2569 12.7402 35.0581 14.012C33.9769 13.3608 32.5519 13.4933 31.6213 14.4245L24.9583 21.0888L17.6441 13.7745C18.3316 12.4571 18.6997 10.9865 18.6997 9.45774C18.6997 6.96028 17.7272 4.6122 15.961 2.8466C14.1954 1.08038 11.8473 0.107901 9.34983 0.107901C6.85238 0.107901 4.5043 1.08038 2.7387 2.8466C0.972483 4.6122 0 6.96028 0 9.45774C0 11.9546 0.972483 14.3026 2.7387 16.0689C4.56117 17.8913 6.9555 18.8032 9.34983 18.8032C10.8342 18.8032 12.3179 18.4513 13.666 17.7507L20.9803 25.0656L0.84436 45.2021C-0.252496 46.299 -0.252496 48.0827 0.84436 49.1795C1.3931 49.7276 2.11246 50.0014 2.83308 50.0014C3.55369 50.0014 4.2743 49.7276 4.82241 49.1795L24.9583 29.043L45.1461 49.2314C45.6942 49.7795 46.4136 50.0533 47.1348 50.0533C47.8542 50.0533 48.5754 49.7795 49.1235 49.2314C50.2204 48.1346 50.2204 46.3508 49.1235 45.254L28.9351 25.0656L35.5987 18.4026C36.5556 17.4451 36.6769 15.9632 35.9619 14.8733C37.4687 13.2777 38.0025 10.9371 37.3406 8.71337C36.7025 6.56841 37.3262 4.29033 38.9681 2.76785C41.1943 0.70289 44.7842 0.743515 46.9692 2.85285C48.5204 4.3522 49.1173 6.57341 48.5248 8.649C48.4304 8.98087 48.6229 9.32711 48.9548 9.42149ZM3.62244 15.1858C2.09246 13.6558 1.24998 11.6214 1.24998 9.45836C1.24998 7.29465 2.09246 5.26031 3.62244 3.73096C5.15178 2.20099 7.18612 1.3585 9.34983 1.3585C11.5135 1.3585 13.5479 2.20099 15.0772 3.73096C16.6072 5.26031 17.4497 7.29465 17.4497 9.45836C17.4497 11.6214 16.6072 13.6558 15.0772 15.1858C11.9192 18.3432 6.78051 18.3432 3.62244 15.1858ZM3.93806 48.2958C3.32932 48.9045 2.33746 48.9052 1.72809 48.2958C1.11873 47.6864 1.11873 46.6946 1.72809 46.0858L21.8646 25.9493L24.0746 28.1593L3.93806 48.2958ZM48.2398 48.3477C47.6298 48.957 46.6386 48.9564 46.0304 48.3477L14.7566 17.0739C15.1779 16.7745 15.5841 16.4464 15.9616 16.0689C16.336 15.6945 16.6672 15.2883 16.9685 14.8658L48.2398 46.1377C48.8485 46.7471 48.8485 47.7383 48.2398 48.3477ZM34.715 17.5188L28.0514 24.1819L25.842 21.9725L32.5051 15.3089C33.0963 14.7176 34.125 14.7189 34.715 15.3089C35.3237 15.9176 35.3237 16.9095 34.715 17.5188Z" fill="white"/>
</svg>
