<svg width="42" height="50" viewBox="0 0 42 50" fill="none" xmlns="http://www.w3.org/2000/svg">
<path d="M40.6222 41.9361L39.1523 40.2374V9.77C39.1489 7.70434 38.3253 5.72436 36.8621 4.26431C35.3989 2.80427 33.4156 1.98338 31.3472 1.98169H27.496L26.3792 1.0394C25.9257 0.66219 25.4023 0.37789 24.8388 0.202735C24.2753 0.0275809 23.6828 -0.0349968 23.0951 0.0185767C22.5074 0.0721503 21.936 0.240825 21.4136 0.514968C20.8911 0.78911 20.4279 1.16335 20.0503 1.61631C19.9962 1.68081 19.9553 1.75533 19.9299 1.83562C19.9046 1.9159 19.8954 2.00039 19.9027 2.08425C19.9105 2.16854 19.9349 2.25046 19.9746 2.32528C20.0143 2.40009 20.0684 2.46632 20.1338 2.52014L29.0108 9.90461C29.1263 10.0002 29.2716 10.0523 29.4216 10.052C29.5159 10.0522 29.6091 10.0316 29.6945 9.99172C29.7799 9.95183 29.8555 9.89364 29.9158 9.82128C30.2936 9.36843 30.5782 8.84571 30.7536 8.28298C30.929 7.72024 30.9917 7.1285 30.938 6.54158C30.8844 5.95465 30.7155 5.38402 30.441 4.8623C30.1665 4.34057 29.7917 3.87796 29.3382 3.50089L29.0429 3.26371H31.3472C33.0757 3.26371 34.7334 3.94899 35.9562 5.16897C37.1791 6.38895 37.8669 8.04384 37.8686 9.77V38.763L32.2779 32.3529C31.8594 31.8605 31.3394 31.4641 30.7534 31.1909C30.1673 30.9176 29.5292 30.7739 28.8824 30.7696H23.7475V26.2825H27.5987C27.7689 26.2825 27.9322 26.215 28.0526 26.0948C28.1729 25.9745 28.2406 25.8115 28.2406 25.6415V23.0774C28.2406 22.9074 28.1729 22.7444 28.0526 22.6242C27.9322 22.504 27.7689 22.4364 27.5987 22.4364H18.6126C18.4423 22.4364 18.2791 22.504 18.1587 22.6242C18.0383 22.7444 17.9707 22.9074 17.9707 23.0774V25.6415C17.9707 25.8115 18.0383 25.9745 18.1587 26.0948C18.2791 26.215 18.4423 26.2825 18.6126 26.2825H22.4638V30.7696H17.0528L8.12446 18.5134C7.42328 17.5529 6.36912 16.9095 5.1934 16.7244C4.01767 16.5394 2.81645 16.8277 1.85342 17.5263C1.37578 17.8726 0.971149 18.3095 0.662637 18.812C0.354125 19.3145 0.147779 19.8728 0.0553874 20.455C-0.0370038 21.0372 -0.0136294 21.6318 0.124175 22.205C0.26198 22.7781 0.511515 23.3186 0.858522 23.7954L11.1284 37.8977C11.5453 38.4696 12.0918 38.935 12.7232 39.2558C13.3546 39.5767 14.053 39.7439 14.7614 39.7438H22.4638V44.8719H18.6126C18.4423 44.8719 18.2791 44.9394 18.1587 45.0596C18.0383 45.1799 17.9707 45.3429 17.9707 45.5129V49.359C17.9707 49.529 18.0383 49.692 18.1587 49.8123C18.2791 49.9325 18.4423 50 18.6126 50H27.5987C27.7689 50 27.9322 49.9325 28.0526 49.8123C28.1729 49.692 28.2406 49.529 28.2406 49.359V45.5129C28.2406 45.3429 28.1729 45.1799 28.0526 45.0596C27.9322 44.9394 27.7689 44.8719 27.5987 44.8719H23.7475V39.7438H26.8349L33.8312 47.8077C34.2114 48.2723 34.681 48.656 35.2123 48.9361C35.7436 49.2163 36.3257 49.3872 36.9242 49.4387C37.5228 49.4903 38.1256 49.4214 38.6971 49.2362C39.2685 49.051 39.7969 48.7533 40.2511 48.3605C40.7053 47.9678 41.0761 47.4881 41.3414 46.9498C41.6067 46.4115 41.7612 45.8256 41.7958 45.2266C41.8304 44.6276 41.7444 44.0278 41.5428 43.4626C41.3412 42.8974 41.0282 42.3783 40.6222 41.9361ZM29.2868 8.46874L21.501 1.9881C22.0787 1.52538 22.7988 1.27642 23.5393 1.28343C24.2799 1.29044 24.9952 1.55298 25.564 2.02656L28.5166 4.48805C29.0847 4.96125 29.4717 5.61593 29.612 6.34131C29.7524 7.0667 29.6375 7.81823 29.2868 8.46874ZM19.2544 25.0005V23.7185H26.9568V25.0005H19.2544ZM26.9568 46.1539V48.718H19.2544V46.1539H26.9568ZM39.332 47.2949C39.0132 47.571 38.6429 47.7816 38.2425 47.9146C37.842 48.0476 37.4193 48.1005 36.9983 48.0701C36.5774 48.0397 36.1666 47.9268 35.7895 47.7377C35.4123 47.5485 35.0763 47.287 34.8005 46.968L27.6115 38.6861C27.5513 38.6158 27.4765 38.5593 27.3923 38.5205C27.308 38.4818 27.2164 38.4618 27.1237 38.4618H14.7614C14.2599 38.4573 13.7664 38.3355 13.3205 38.1062C12.8746 37.8769 12.4888 37.5464 12.1939 37.1413L1.92402 23.039C1.42353 22.3513 1.21709 21.4932 1.3501 20.6535C1.48311 19.8138 1.94469 19.0613 2.63328 18.5615C3.32188 18.0617 4.18109 17.8555 5.0219 17.9883C5.86271 18.1212 6.61624 18.5821 7.11673 19.2698L16.2312 31.7888C16.291 31.8705 16.3692 31.9369 16.4596 31.9825C16.55 32.0282 16.6499 32.0519 16.7512 32.0516H28.8824C29.3428 32.0519 29.7978 32.151 30.2164 32.3424C30.6351 32.5337 31.0076 32.8128 31.3087 33.1606L39.653 42.7758C40.2101 43.4177 40.4892 44.2543 40.4291 45.1017C40.3689 45.9491 39.9743 46.7379 39.332 47.2949ZM14.5624 3.48166C14.5544 3.39741 14.5633 3.31243 14.5884 3.23162C14.6135 3.15081 14.6544 3.07576 14.7087 3.0108C14.763 2.94585 14.8296 2.89227 14.9048 2.85317C14.9799 2.81406 15.0621 2.7902 15.1465 2.78295L17.8552 2.56501C17.9395 2.55743 18.0244 2.56651 18.1052 2.59173C18.186 2.61694 18.261 2.6578 18.326 2.71196C18.3909 2.76613 18.4446 2.83254 18.4838 2.90742C18.5231 2.98229 18.5472 3.06415 18.5548 3.14833C18.5624 3.23251 18.5533 3.31736 18.528 3.39803C18.5028 3.4787 18.4619 3.55361 18.4076 3.61849C18.3534 3.68337 18.2869 3.73695 18.2119 3.77616C18.137 3.81538 18.055 3.83946 17.9707 3.84704L15.262 4.09062H15.1978C15.0341 4.08919 14.8772 4.02534 14.759 3.91214C14.6409 3.79894 14.5706 3.64495 14.5624 3.48166ZM20.4676 5.31496C20.5209 5.38052 20.5607 5.45597 20.5847 5.53695C20.6087 5.61794 20.6165 5.70287 20.6076 5.78686C20.5986 5.87085 20.5731 5.95225 20.5326 6.02637C20.492 6.1005 20.4372 6.16589 20.3713 6.21879L17.8038 8.27003C17.6892 8.36189 17.5464 8.41167 17.3994 8.41105C17.3046 8.41043 17.2111 8.38883 17.1257 8.34782C17.0402 8.30681 16.9649 8.24741 16.9052 8.17388C16.7995 8.04183 16.7503 7.87345 16.7684 7.70538C16.7864 7.5373 16.8702 7.38314 17.0015 7.27646L19.5689 5.2188C19.7012 5.11327 19.8698 5.06416 20.0381 5.08217C20.2064 5.10018 20.3607 5.18384 20.4676 5.31496ZM28.3689 14.9686L28.125 12.2635C28.117 12.1794 28.1257 12.0944 28.1506 12.0136C28.1754 11.9328 28.216 11.8576 28.2699 11.7924C28.3239 11.7273 28.3901 11.6733 28.4649 11.6337C28.5397 11.5941 28.6216 11.5696 28.7059 11.5616C28.7902 11.5536 28.8753 11.5623 28.9562 11.5871C29.0371 11.6119 29.1124 11.6525 29.1777 11.7063C29.2429 11.7602 29.2969 11.8264 29.3366 11.9011C29.3762 11.9758 29.4008 12.0576 29.4088 12.1417L29.6527 14.8532C29.6688 15.0224 29.617 15.191 29.5086 15.322C29.4003 15.453 29.2443 15.5357 29.075 15.5519H29.0108C28.8501 15.5526 28.695 15.493 28.5762 15.385C28.4574 15.277 28.3834 15.1284 28.3689 14.9686ZM24.0171 14.1033C23.8687 14.022 23.7584 13.8854 23.7104 13.7233C23.6623 13.5613 23.6802 13.3868 23.7603 13.2379L25.3522 10.3405C25.3922 10.2664 25.4465 10.2009 25.5118 10.1478C25.5772 10.0947 25.6524 10.0549 25.7332 10.0308C25.814 10.0067 25.8987 9.99872 25.9825 10.0073C26.0664 10.0159 26.1477 10.0409 26.2219 10.0809C26.2961 10.1209 26.3616 10.1751 26.4148 10.2403C26.4681 10.3056 26.5079 10.3808 26.532 10.4614C26.5561 10.5421 26.5641 10.6267 26.5555 10.7104C26.5469 10.7942 26.5219 10.8754 26.4819 10.9495L24.9221 13.8212C24.8667 13.9224 24.785 14.0067 24.6856 14.0654C24.5862 14.124 24.4727 14.1548 24.3573 14.1545C24.2413 14.1712 24.123 14.1533 24.0171 14.1033ZM19.5754 11.2187L22.0401 8.26362C22.1491 8.13271 22.3056 8.05039 22.4754 8.03476C22.6451 8.01914 22.8141 8.07148 22.9452 8.18029C23.0762 8.28909 23.1587 8.44544 23.1743 8.61494C23.19 8.78444 23.1376 8.95321 23.0286 9.08412L20.5638 12.0392C20.5035 12.1115 20.4279 12.1697 20.3425 12.2096C20.2571 12.2495 20.1639 12.2701 20.0696 12.27C19.9196 12.2702 19.7743 12.2181 19.6588 12.1225C19.5938 12.0687 19.5401 12.0026 19.5007 11.928C19.4613 11.8535 19.4371 11.7719 19.4293 11.6879C19.4216 11.6039 19.4305 11.5193 19.4555 11.4388C19.4806 11.3582 19.5213 11.2835 19.5754 11.2187Z" fill="white"/>
</svg>
