<svg width="50" height="48" viewBox="0 0 50 48" fill="none" xmlns="http://www.w3.org/2000/svg">
<path d="M31.758 36.0335C31.5627 35.9614 31.3474 35.965 31.1545 36.0437C30.9617 36.1224 30.8053 36.2704 30.7162 36.4586C30.264 37.5249 29.5134 38.4378 28.5545 39.0875C27.5957 39.7372 26.4695 40.096 25.3116 40.1206C24.1536 40.1453 23.0132 39.8348 22.0276 39.2265C21.0419 38.6182 20.2531 37.7381 19.756 36.6919C19.7181 36.5886 19.6591 36.4943 19.5827 36.4151C19.5064 36.3358 19.4143 36.2734 19.3125 36.2317C19.2106 36.19 19.1012 36.17 18.9912 36.173C18.8812 36.1759 18.773 36.2018 18.6736 36.2489C18.5741 36.296 18.4856 36.3633 18.4136 36.4466C18.3416 36.5298 18.2878 36.6272 18.2555 36.7324C18.2233 36.8376 18.2133 36.9484 18.2262 37.0576C18.2392 37.1669 18.2748 37.2723 18.3307 37.3671C18.9581 38.6901 19.9546 39.8035 21.2002 40.5732C22.4458 41.3429 23.8874 41.736 25.3513 41.7052C26.8152 41.6743 28.239 41.2209 29.4511 40.3994C30.6633 39.578 31.612 38.4236 32.1831 37.0753C32.2552 36.88 32.2516 36.6647 32.1729 36.4719C32.0942 36.279 31.9462 36.1227 31.758 36.0335Z" fill="white"/>
<path d="M21.2812 28.5233C21.4095 28.3657 21.4723 28.1649 21.4566 27.9624C21.441 27.7598 21.348 27.571 21.1971 27.4351C21.0461 27.2991 20.8487 27.2264 20.6456 27.2319C20.4426 27.2374 20.2494 27.3208 20.106 27.4648C19.7712 27.9289 19.3355 28.3111 18.8317 28.5825C18.3278 28.8539 17.769 29.0075 17.1972 29.0317C16.1803 28.8872 15.2611 28.3483 14.6384 27.5315C14.578 27.4473 14.5016 27.3759 14.4134 27.3214C14.3253 27.267 14.2272 27.2306 14.1249 27.2143C14.0225 27.198 13.918 27.2022 13.8173 27.2266C13.7166 27.251 13.6218 27.2951 13.5382 27.3564C13.3709 27.4815 13.2566 27.6648 13.2181 27.8701C13.1795 28.0754 13.2194 28.2877 13.3299 28.4649C13.7737 29.06 14.3347 29.5578 14.9784 29.9276C15.622 30.2974 16.3346 30.5315 17.0722 30.6153H17.2889C18.0666 30.5786 18.8269 30.3723 19.5165 30.0109C20.2061 29.6496 20.8084 29.1418 21.2812 28.5233Z" fill="white"/>
<path d="M35.4587 27.4651C35.1269 27.9304 34.693 28.3136 34.1903 28.5852C33.6875 28.8568 33.1292 29.0097 32.5582 29.0321C31.541 28.8885 30.6215 28.3493 29.9994 27.5318C29.9583 27.4071 29.8884 27.2939 29.7953 27.2013C29.7022 27.1088 29.5885 27.0395 29.4636 26.9992C29.3386 26.9589 29.2059 26.9487 29.0762 26.9694C28.9466 26.9901 28.8237 27.0412 28.7175 27.1184C28.6113 27.1956 28.5249 27.2968 28.4652 27.4138C28.4056 27.5308 28.3744 27.6601 28.3742 27.7914C28.3741 27.9227 28.4049 28.0522 28.4643 28.1693C28.5237 28.2864 28.6099 28.3878 28.7158 28.4653C29.1654 29.0641 29.7333 29.564 30.3843 29.9339C31.0352 30.3038 31.7554 30.5359 32.4998 30.6157H32.7082C33.4797 30.572 34.2327 30.3625 34.9159 30.0015C35.5991 29.6405 36.1964 29.1364 36.6672 28.5237C36.7977 28.3634 36.864 28.1604 36.8532 27.954C36.8424 27.7476 36.7553 27.5526 36.6089 27.4068C36.4465 27.2667 36.2363 27.1945 36.0221 27.2054C35.8078 27.2162 35.606 27.3093 35.4587 27.4651Z" fill="white"/>
<path d="M43.6934 20.6392C43.5684 18.4721 42.8599 12.6961 39.276 9.30387C38.2593 8.36846 37.0543 7.66139 35.7418 7.23012C34.4293 6.79885 33.0397 6.65337 31.6664 6.80345C29.8827 6.92013 28.2574 7.06182 26.8239 7.18684C17.9057 7.97031 15.2135 8.20369 12.4631 0.519035C12.3966 0.35586 12.2801 0.217947 12.1304 0.125103C11.9806 0.0322591 11.8053 -0.0107406 11.6296 0.00227933C11.527 0.0122489 11.4277 0.0434731 11.3379 0.0939618C11.1045 0.210649 5.62856 3.16949 4.03662 9.09551C3.06145 12.7045 3.7449 16.5968 6.0703 20.6642C4.28681 20.9387 2.67276 21.8766 1.55112 23.2901C0.42948 24.7037 -0.117017 26.4887 0.0209787 28.2879C0.158975 30.0871 0.971286 31.7679 2.29537 32.9938C3.61946 34.2198 5.35766 34.9006 7.16216 34.8999H7.67891C8.95448 38.5093 11.3041 41.6418 14.4121 43.8767C17.5201 46.1116 21.2376 47.3418 25.0652 47.4021C28.892 47.3425 32.6088 46.1124 35.7156 43.8773C38.8224 41.6422 41.1702 38.5093 42.4432 34.8999H42.8516C44.6762 34.8971 46.4309 34.1977 47.7572 32.9446C49.0836 31.6916 49.8814 29.9794 49.9878 28.1579C50.0942 26.3363 49.5011 24.5429 48.3297 23.144C47.1583 21.745 45.497 20.8461 43.6851 20.6308L43.6934 20.6392ZM5.55355 9.52891C6.62873 5.51989 9.82928 2.96946 11.3045 1.97762C14.4051 9.8623 18.2057 9.52891 26.9656 8.76212C28.3908 8.63709 30.0077 8.4954 31.7747 8.37872C32.9306 8.24717 34.1012 8.36429 35.2081 8.72223C36.315 9.08017 37.3325 9.67065 38.1925 10.4541C41.443 13.5046 42.0181 19.0305 42.1182 20.8642C35.167 22.4145 32.7665 15.0299 32.6665 14.6715C32.6227 14.5307 32.5405 14.405 32.4291 14.3085C32.3178 14.2119 32.1817 14.1484 32.0362 14.125C31.8906 14.1016 31.7415 14.1193 31.6055 14.1761C31.4694 14.2329 31.352 14.3265 31.2663 14.4464C26.8405 20.7308 19.5976 22.0561 16.7305 22.3311C12.9381 22.6895 9.39587 21.9977 7.85394 20.5975C5.42019 16.6385 4.64506 12.9212 5.55355 9.52891ZM1.57787 27.7404C1.58062 26.397 2.06753 25.0997 2.9493 24.0863C3.83108 23.0728 5.04863 22.4112 6.37869 22.2228V27.7404C6.37912 29.6286 6.63996 31.5077 7.15382 33.3247C5.6749 33.3203 4.25793 32.7302 3.21295 31.6837C2.16797 30.6371 1.58006 29.2193 1.57787 27.7404ZM25.0569 45.8018C15.6303 45.8018 7.9623 37.7004 7.9623 27.7404V22.5978C10.0586 23.6106 12.3701 24.0969 14.6968 24.0147C15.426 24.0152 16.1549 23.9791 16.8805 23.9064C19.8227 23.6313 26.8822 22.3478 31.708 16.4801C32.8666 18.9139 35.9838 23.673 42.1432 22.4811V27.7404C42.1432 37.7004 34.4752 45.8018 25.0569 45.8018ZM42.96 33.2997C43.4676 31.4845 43.7256 29.6086 43.7268 27.7237V22.2228C45.0974 22.4473 46.3349 23.1754 47.1969 24.2643C48.059 25.3533 48.4837 26.7248 48.3878 28.1104C48.2918 29.496 47.6823 30.7959 46.6784 31.7557C45.6744 32.7155 44.3485 33.2661 42.96 33.2997Z" fill="white"/>
</svg>
