<svg width="50" height="50" viewBox="0 0 50 50" fill="none" xmlns="http://www.w3.org/2000/svg">
<path d="M43.7246 22.5864H32.6728V14.9482H39.6171C39.9537 14.9482 40.2268 14.675 40.2268 14.3384V4.38659C40.2241 2.04562 38.3853 0.118299 36.0467 0.00516069V0H9.72235C6.99195 0.00317581 4.7796 2.21553 4.77642 4.94593V40.0406C4.77642 40.2749 4.9106 40.4888 5.12219 40.5905C5.33338 40.6917 5.58387 40.6631 5.76688 40.517L8.72118 38.1538L11.6755 40.517C11.8982 40.6953 12.215 40.6953 12.4377 40.517L15.3916 38.1538L18.3451 40.517C18.5682 40.6953 18.8846 40.6953 19.1073 40.517L22.0612 38.1538L25.0147 40.517C25.2374 40.6953 25.5542 40.6953 25.7769 40.517L25.8396 40.4666V48.374C25.8404 49.2715 26.5681 49.9988 27.4656 50H43.7258C44.6234 49.9988 45.3506 49.2715 45.3518 48.374V24.2124C45.3506 23.3144 44.6226 22.5868 43.7246 22.5864ZM39.0073 4.38659V13.7286H32.6728V4.38659C32.6827 2.64466 34.0979 1.23738 35.8398 1.23738C37.5822 1.23738 38.9974 2.64466 39.0073 4.38659ZM25.395 39.2598L22.4415 36.8966C22.2188 36.7184 21.902 36.7184 21.6793 36.8966L18.7258 39.2598L15.7719 36.8966C15.5492 36.7184 15.2328 36.7184 15.0097 36.8966L12.0566 39.2598L9.10228 36.8966C8.87918 36.7184 8.56279 36.7184 8.34008 36.8966L5.99554 38.7723V4.94593C5.99792 2.8888 7.66522 1.2215 9.72235 1.21951H32.8097C31.9431 2.04522 31.4529 3.18971 31.4533 4.38659V22.5864H27.4644C26.5669 22.5876 25.8396 23.3148 25.8384 24.2124V38.9049L25.395 39.2598ZM44.1311 48.374C44.1311 48.5987 43.9493 48.7805 43.7246 48.7805H27.4644C27.2397 48.7805 27.0579 48.5987 27.0579 48.374V24.2124C27.0579 23.9877 27.2397 23.8059 27.4644 23.8059H43.7246C43.9493 23.8059 44.1311 23.9877 44.1311 24.2124V48.374Z" fill="white"/>
<path d="M42.4543 24.873H28.7348C28.3981 24.873 28.125 25.1462 28.125 25.4828V29.0397C28.125 29.3763 28.3981 29.6495 28.7348 29.6495H42.4543C42.7909 29.6495 43.064 29.3763 43.064 29.0397V25.4828C43.064 25.1462 42.7909 24.873 42.4543 24.873ZM41.8445 28.43H29.3445V26.0926H41.8445V28.43Z" fill="white"/>
<path d="M31.7835 31.8599H28.7348C28.3981 31.8599 28.125 32.133 28.125 32.4696V35.5184C28.125 35.855 28.3981 36.1282 28.7348 36.1282H31.7835C32.1202 36.1282 32.3933 35.855 32.3933 35.5184V32.4696C32.3933 32.133 32.1202 31.8599 31.7835 31.8599ZM31.1738 34.9086H29.3445V33.0794H31.1738V34.9086Z" fill="white"/>
<path d="M36.8902 31.8599H33.8415C33.5048 31.8599 33.2317 32.133 33.2317 32.4696V35.5184C33.2317 35.855 33.5048 36.1282 33.8415 36.1282H36.8902C37.2269 36.1282 37.5 35.855 37.5 35.5184V32.4696C37.5 32.133 37.2269 31.8599 36.8902 31.8599ZM36.2805 34.9086H34.4512V33.0794H36.2805V34.9086Z" fill="white"/>
<path d="M42.4543 31.8599H39.4055C39.0689 31.8599 38.7957 32.133 38.7957 32.4696V35.5184C38.7957 35.855 39.0689 36.1282 39.4055 36.1282H42.4543C42.7909 36.1282 43.064 35.855 43.064 35.5184V32.4696C43.064 32.133 42.7909 31.8599 42.4543 31.8599ZM41.8445 34.9086H40.0152V33.0794H41.8445V34.9086Z" fill="white"/>
<path d="M31.7835 37.1953H28.7348C28.3981 37.1953 28.125 37.4684 28.125 37.8051V40.8538C28.125 41.1905 28.3981 41.4636 28.7348 41.4636H31.7835C32.1202 41.4636 32.3933 41.1905 32.3933 40.8538V37.8051C32.3933 37.4684 32.1202 37.1953 31.7835 37.1953ZM31.1738 40.2441H29.3445V38.4148H31.1738V40.2441Z" fill="white"/>
<path d="M36.8902 37.1953H33.8415C33.5048 37.1953 33.2317 37.4684 33.2317 37.8051V40.8538C33.2317 41.1905 33.5048 41.4636 33.8415 41.4636H36.8902C37.2269 41.4636 37.5 41.1905 37.5 40.8538V37.8051C37.5 37.4684 37.2269 37.1953 36.8902 37.1953ZM36.2805 40.2441H34.4512V38.4148H36.2805V40.2441Z" fill="white"/>
<path d="M42.4543 37.1953H39.4055C39.0689 37.1953 38.7957 37.4684 38.7957 37.8051V40.8538C38.7957 41.1905 39.0689 41.4636 39.4055 41.4636H42.4543C42.7909 41.4636 43.064 41.1905 43.064 40.8538V37.8051C43.064 37.4684 42.7909 37.1953 42.4543 37.1953ZM41.8445 40.2441H40.0152V38.4148H41.8445V40.2441Z" fill="white"/>
<path d="M31.7835 42.5303H28.7348C28.3981 42.5303 28.125 42.8034 28.125 43.14V46.1888C28.125 46.5254 28.3981 46.7986 28.7348 46.7986H31.7835C32.1202 46.7986 32.3933 46.5254 32.3933 46.1888V43.14C32.3933 42.8034 32.1202 42.5303 31.7835 42.5303ZM31.1738 45.5791H29.3445V43.7498H31.1738V45.5791Z" fill="white"/>
<path d="M36.8902 42.5303H33.8415C33.5048 42.5303 33.2317 42.8034 33.2317 43.14V46.1888C33.2317 46.5254 33.5048 46.7986 33.8415 46.7986H36.8902C37.2269 46.7986 37.5 46.5254 37.5 46.1888V43.14C37.5 42.8034 37.2269 42.5303 36.8902 42.5303ZM36.2805 45.5791H34.4512V43.7498H36.2805V45.5791Z" fill="white"/>
<path d="M42.4543 42.5303H39.4055C39.0689 42.5303 38.7957 42.8034 38.7957 43.14V46.1888C38.7957 46.5254 39.0689 46.7986 39.4055 46.7986H42.4543C42.7909 46.7986 43.064 46.5254 43.064 46.1888V43.14C43.064 42.8034 42.7909 42.5303 42.4543 42.5303ZM41.8445 45.5791H40.0152V43.7498H41.8445V45.5791Z" fill="white"/>
<path d="M8.84782 18.2928H9.0864C9.42343 18.2928 9.69615 18.0196 9.69615 17.683C9.69615 17.3464 9.42343 17.0732 9.0864 17.0732H8.84782C8.51118 17.0732 8.23806 17.3464 8.23806 17.683C8.23806 18.0196 8.51118 18.2928 8.84782 18.2928Z" fill="white"/>
<path d="M13.2678 17.0732H11.4659C11.1292 17.0732 10.8561 17.3464 10.8561 17.683C10.8561 18.0196 11.1292 18.2928 11.4659 18.2928H13.2678C13.6044 18.2928 13.8775 18.0196 13.8775 17.683C13.8775 17.3464 13.6044 17.0732 13.2678 17.0732Z" fill="white"/>
<path d="M29.2111 17.683C29.2111 17.3464 28.938 17.0732 28.6014 17.0732H15.6861C15.3495 17.0732 15.0764 17.3464 15.0764 17.683C15.0764 18.0196 15.3495 18.2928 15.6861 18.2928H28.6014C28.938 18.2928 29.2111 18.0196 29.2111 17.683Z" fill="white"/>
<path d="M8.84782 13.2112H9.0864C9.42343 13.2112 9.69615 12.9381 9.69615 12.6015C9.69615 12.2648 9.42343 11.9917 9.0864 11.9917H8.84782C8.51118 11.9917 8.23806 12.2648 8.23806 12.6015C8.23806 12.9381 8.51118 13.2112 8.84782 13.2112Z" fill="white"/>
<path d="M13.2678 11.9917H11.4659C11.1292 11.9917 10.8561 12.2648 10.8561 12.6015C10.8561 12.9381 11.1292 13.2112 11.4659 13.2112H13.2678C13.6044 13.2112 13.8775 12.9381 13.8775 12.6015C13.8775 12.2648 13.6044 11.9917 13.2678 11.9917Z" fill="white"/>
<path d="M15.6861 13.2112H28.6014C28.938 13.2112 29.2111 12.9381 29.2111 12.6015C29.2111 12.2648 28.938 11.9917 28.6014 11.9917H15.6861C15.3495 11.9917 15.0764 12.2648 15.0764 12.6015C15.0764 12.9381 15.3495 13.2112 15.6861 13.2112Z" fill="white"/>
<path d="M8.84782 8.13016H9.0864C9.42343 8.13016 9.69615 7.85704 9.69615 7.5204C9.69615 7.18376 9.42343 6.91064 9.0864 6.91064H8.84782C8.51118 6.91064 8.23806 7.18376 8.23806 7.5204C8.23806 7.85704 8.51118 8.13016 8.84782 8.13016Z" fill="white"/>
<path d="M13.2678 6.91064H11.4659C11.1292 6.91064 10.8561 7.18376 10.8561 7.5204C10.8561 7.85704 11.1292 8.13016 11.4659 8.13016H13.2678C13.6044 8.13016 13.8775 7.85704 13.8775 7.5204C13.8775 7.18376 13.6044 6.91064 13.2678 6.91064Z" fill="white"/>
<path d="M15.6861 8.13016H28.6014C28.938 8.13016 29.2111 7.85704 29.2111 7.5204C29.2111 7.18376 28.938 6.91064 28.6014 6.91064H15.6861C15.3495 6.91064 15.0764 7.18376 15.0764 7.5204C15.0764 7.85704 15.3495 8.13016 15.6861 8.13016Z" fill="white"/>
<path d="M8.84782 23.3738H9.0864C9.42343 23.3738 9.69615 23.1007 9.69615 22.7641C9.69615 22.4274 9.42343 22.1543 9.0864 22.1543H8.84782C8.51118 22.1543 8.23806 22.4274 8.23806 22.7641C8.23806 23.1007 8.51118 23.3738 8.84782 23.3738Z" fill="white"/>
<path d="M13.2678 22.1543H11.4659C11.1292 22.1543 10.8561 22.4274 10.8561 22.7641C10.8561 23.1007 11.1292 23.3738 11.4659 23.3738H13.2678C13.6044 23.3738 13.8775 23.1007 13.8775 22.7641C13.8775 22.4274 13.6044 22.1543 13.2678 22.1543Z" fill="white"/>
<path d="M15.6861 23.3738H23.5201C23.8567 23.3738 24.1298 23.1007 24.1298 22.7641C24.1298 22.4274 23.8567 22.1543 23.5201 22.1543H15.6861C15.3495 22.1543 15.0764 22.4274 15.0764 22.7641C15.0764 23.1007 15.3495 23.3738 15.6861 23.3738Z" fill="white"/>
<path d="M10.3631 28.9114C10.8629 28.9122 11.2678 29.3171 11.2686 29.8169C11.2686 30.1536 11.5413 30.4267 11.8783 30.4267C12.215 30.4267 12.4881 30.1536 12.4881 29.8169C12.4865 28.8789 11.8712 28.0524 10.9728 27.7824V27.4696C10.9728 27.1326 10.6997 26.8599 10.3631 26.8599C10.0264 26.8599 9.75332 27.1326 9.75332 27.4696V27.7824C8.74182 28.0837 8.10507 29.0817 8.2583 30.1262C8.41114 31.1702 9.30791 31.9435 10.3631 31.942C10.8629 31.9392 11.2706 32.3417 11.2737 32.8415C11.2765 33.3417 10.8736 33.749 10.3738 33.7522C10.3702 33.7522 10.3666 33.7514 10.3631 33.7514C10.3595 33.7514 10.3559 33.7522 10.3524 33.7522C9.85733 33.7458 9.45876 33.3429 9.45797 32.8479C9.45797 32.5108 9.18485 32.2381 8.84821 32.2381C8.51158 32.2381 8.23846 32.5108 8.23846 32.8479C8.24004 33.7859 8.85536 34.6124 9.75371 34.8824V35.2643C9.75371 35.6009 10.0268 35.874 10.3635 35.874C10.7001 35.874 10.9732 35.6009 10.9732 35.2643V34.8824C11.9847 34.5811 12.6215 33.5831 12.4682 32.5386C12.315 31.4946 11.4186 30.7213 10.3635 30.7228C9.86328 30.7228 9.45797 30.3175 9.45797 29.8173C9.45797 29.3175 9.86328 28.9122 10.3635 28.9122L10.3631 28.9114Z" fill="white"/>
<path d="M24.2386 32.3892H21.9191C21.5824 32.3892 21.3093 32.6623 21.3093 32.9989C21.3093 33.336 21.5824 33.6087 21.9191 33.6087H24.2386C24.5752 33.6087 24.8484 33.336 24.8484 32.9989C24.8484 32.6623 24.5752 32.3892 24.2386 32.3892Z" fill="white"/>
<path d="M19.7595 32.3892H15.2372C14.9005 32.3892 14.6274 32.6623 14.6274 32.9989C14.6274 33.336 14.9005 33.6087 15.2372 33.6087H19.7595C20.0965 33.6087 20.3693 33.336 20.3693 32.9989C20.3693 32.6623 20.0965 32.3892 19.7595 32.3892Z" fill="white"/>
</svg>
