<svg width="24" height="24" viewBox="0 0 24 24" fill="none" xmlns="http://www.w3.org/2000/svg">
<path d="M14.71 15.88L10.83 12L14.71 8.12C14.8026 8.02742 14.876 7.91751 14.9261 7.79655C14.9762 7.67558 15.002 7.54594 15.002 7.415C15.002 7.28407 14.9762 7.15443 14.9261 7.03346C14.876 6.9125 14.8026 6.80259 14.71 6.71C14.6174 6.61742 14.5075 6.54398 14.3865 6.49388C14.2656 6.44377 14.1359 6.41798 14.005 6.41798C13.8741 6.41798 13.7444 6.44377 13.6235 6.49388C13.5025 6.54398 13.3926 6.61742 13.3 6.71L8.70999 11.3C8.31999 11.69 8.31999 12.32 8.70999 12.71L13.3 17.3C13.3925 17.3927 13.5024 17.4663 13.6234 17.5164C13.7443 17.5666 13.874 17.5924 14.005 17.5924C14.136 17.5924 14.2656 17.5666 14.3866 17.5164C14.5076 17.4663 14.6175 17.3927 14.71 17.3C15.09 16.91 15.1 16.27 14.71 15.88Z" fill="white"/>
</svg>
