<svg width="50" height="30" viewBox="0 0 50 30" fill="none" xmlns="http://www.w3.org/2000/svg">
<rect width="50" height="30" rx="3" fill="white"/>
<path d="M31.0641 6.18115C28.6717 6.18179 26.4911 7.08859 24.8476 8.57795C23.2028 7.0905 21.0235 6.18307 18.6337 6.18307C18.6139 6.18307 18.5934 6.18307 18.5742 6.18307C13.4852 6.21632 9.36432 10.3564 9.36432 15.4524C9.36432 20.569 13.5172 24.7212 18.6331 24.7212C21.0228 24.7212 23.2022 23.815 24.8463 22.3263C24.5029 22.0161 24.1921 21.6727 23.8986 21.3133H25.8126C25.5242 21.667 25.2095 21.9982 24.8713 22.3065H24.87C24.8623 22.3148 24.854 22.3199 24.8463 22.3269C26.4917 23.8169 28.6736 24.725 31.0672 24.7244C36.1863 24.7225 40.3347 20.5709 40.3334 15.4524C40.3334 15.4505 40.3334 15.4492 40.3334 15.448C40.3341 10.3295 36.1831 6.17987 31.0641 6.18115ZM24.0047 9.53527H25.7665C26.0262 9.84989 26.2673 10.1811 26.486 10.5278H23.3429C23.5456 10.1965 23.7681 9.85565 24.0047 9.53527ZM22.7955 11.501H27.0206C27.1709 11.8221 27.3039 12.154 27.4203 12.4942H22.2948C22.3459 12.3983 22.525 12.012 22.7955 11.501ZM13.1482 17.8134L13.7103 14.2694L12.4422 17.8134H11.7624L11.6741 14.2694L11.0737 17.8134H10.1215L10.9106 13.1132H12.3507L12.4012 15.9973L13.3739 13.1132H14.9362L14.1579 17.8134H13.1482ZM16.5151 17.8058L16.5477 17.4304C16.5323 17.4323 16.2318 17.8838 15.5354 17.8838C15.1709 17.8838 14.5825 17.6849 14.5825 16.8203C14.5825 15.721 15.4791 15.3565 16.3328 15.3565C16.4671 15.3565 16.7568 15.3808 16.7568 15.3808C16.7568 15.3808 16.7894 15.3137 16.7894 15.1321C16.7894 14.8334 16.5208 14.7925 16.1531 14.7925C15.5053 14.7925 15.0775 14.9658 15.0775 14.9658L15.2207 14.1153C15.2207 14.1153 15.74 13.8979 16.4159 13.8979C16.7657 13.8979 17.7717 13.9349 17.7717 15.0879L17.3841 17.8058H16.5151ZM20.1876 16.6086C20.1876 17.9202 18.917 17.864 18.6951 17.864C17.8669 17.864 17.6112 17.7495 17.5875 17.7431L17.7192 16.8798C17.7205 16.8721 18.1349 17.0301 18.596 17.0301C18.862 17.0301 19.2073 17.0038 19.2073 16.686C19.2073 16.2102 17.9718 16.3241 17.9718 15.1941C17.9718 14.1971 18.7123 13.9055 19.4426 13.9055C20.0067 13.9055 20.3533 13.9829 20.3533 13.9829L20.2286 14.8539C20.2286 14.8539 19.6933 14.8098 19.5546 14.8098C19.2035 14.8098 19.0123 14.8865 19.0123 15.1321C19.0116 15.6257 20.1876 15.384 20.1876 16.6086ZM21.7135 16.9527C21.8011 16.9527 21.9002 16.9226 21.968 16.9226L21.8446 17.761C21.7454 17.7885 21.4647 17.8883 21.1047 17.8908C20.6449 17.8946 20.3181 17.6376 20.3181 17.0544C20.3181 16.663 20.8789 13.4381 20.9007 13.417H21.8874L21.787 13.9938H22.2794L22.1534 14.9229H21.631L21.3534 16.6349C21.3323 16.7711 21.3701 16.9527 21.7135 16.9527ZM23.8839 13.8851C24.9672 13.8851 25.2914 14.678 25.2914 15.3284C25.2914 15.5887 25.1609 16.2281 25.1609 16.2281H23.1555C23.1555 16.2281 22.9701 17.0179 24.0297 17.0179C24.5266 17.0179 25.0778 16.7749 25.0778 16.7749L24.9039 17.7258C24.9039 17.7258 24.5854 17.8883 23.8615 17.8883C23.0769 17.8883 22.1566 17.5564 22.1566 16.1623C22.1573 14.9543 22.8914 13.8851 23.8839 13.8851ZM26.4975 20.3586H23.2092C23.0091 20.0388 22.8223 19.7108 22.6618 19.3661H27.0378C26.8767 19.7089 26.6964 20.0401 26.4975 20.3586ZM26.2768 17.8205H25.2639L25.8797 13.9951H26.7987L26.7104 14.5495C26.7104 14.5495 27.0378 13.9465 27.4797 13.9465C27.6083 13.9465 27.6703 13.9592 27.6703 13.9592C27.5392 14.2265 27.4234 14.4715 27.3032 15.1039C26.6177 14.8609 26.5653 16.1866 26.2768 17.8205ZM30.1362 17.761C30.1362 17.761 29.6054 17.8966 29.2728 17.8966C28.0949 17.8966 27.497 17.0838 27.497 15.8528C27.497 13.9963 28.6052 13.0077 29.7442 13.0077C30.2589 13.0077 30.8556 13.2494 30.8556 13.2494L30.6944 14.295C30.6944 14.295 30.2909 14.013 29.7889 14.013C29.1175 14.013 28.5151 14.6537 28.5151 15.8182C28.5151 16.3919 28.7958 16.9265 29.4967 16.9265C29.8298 16.9265 30.3127 16.6841 30.3127 16.6841L30.1362 17.761ZM32.5119 17.8077L32.5451 17.4297C32.5291 17.4317 32.2286 17.8831 31.5328 17.8831C31.1683 17.8831 30.58 17.6843 30.58 16.8197C30.58 15.7204 31.4765 15.3559 32.3296 15.3559C32.4639 15.3559 32.7542 15.3802 32.7542 15.3802C32.7542 15.3802 32.7875 15.3137 32.7875 15.1321C32.7875 14.8334 32.5189 14.7925 32.1505 14.7925C31.5027 14.7925 31.0756 14.9658 31.0756 14.9658L31.2188 14.1153C31.2188 14.1153 31.7381 13.8979 32.4146 13.8979C32.7638 13.8979 33.7704 13.9349 33.7697 15.0879L33.3822 17.8058C33.3816 17.8077 32.5119 17.8077 32.5119 17.8077ZM34.5627 17.8205H33.5497L34.1656 13.9951H35.0852L34.9969 14.5495C34.9969 14.5495 35.325 13.9465 35.7668 13.9465C35.8954 13.9465 35.9568 13.9592 35.9568 13.9592C35.8263 14.2265 35.7093 14.4715 35.5897 15.1039C34.9035 14.8609 34.8511 16.1866 34.5627 17.8205ZM37.5868 17.8102L37.6297 17.4579C37.6297 17.4579 37.3023 17.871 36.7101 17.871C35.8896 17.871 35.4874 17.0787 35.4874 16.2691C35.4874 15.017 36.2407 13.9253 37.1449 13.9253C37.7269 13.9266 38.0984 14.4401 38.0984 14.4401L38.312 13.1196L39.3013 13.1177L38.5467 17.8102H37.5868ZM39.5385 17.6779C39.5123 17.7252 39.4752 17.7616 39.4279 17.7898C39.3812 17.816 39.3313 17.8294 39.2789 17.8294C39.2278 17.8294 39.1785 17.816 39.1312 17.7898C39.0839 17.7616 39.0468 17.7252 39.0206 17.6779C38.9937 17.6299 38.9809 17.5813 38.9809 17.5295C38.9809 17.4771 38.9943 17.4272 39.0206 17.3799C39.0468 17.3325 39.0858 17.2942 39.1325 17.2686C39.1811 17.2424 39.229 17.2289 39.2789 17.2289C39.3301 17.2289 39.3787 17.2424 39.426 17.2686C39.4746 17.2948 39.5117 17.3313 39.5385 17.3799C39.566 17.4278 39.5782 17.4777 39.5782 17.5295C39.5782 17.5813 39.5654 17.6305 39.5385 17.6779Z" fill="#67BC9E"/>
</svg>
