<svg width="51" height="31" viewBox="0 0 51 31" fill="none" xmlns="http://www.w3.org/2000/svg">
<rect width="51" height="30" rx="3" fill="white"/>
<path d="M23.4126 10.8872L21.8371 20.1326H24.3568L25.9336 10.8872H23.4126Z" fill="#67BC9E"/>
<path d="M19.7244 10.8975L17.2565 17.2026L16.9934 16.2505C16.5067 15.1035 15.125 13.456 13.5029 12.4178L15.7595 20.128L18.4256 20.1234L22.3938 10.8955L19.7244 10.8975Z" fill="#67BC9E"/>
<path d="M16.0368 11.5592C15.8904 10.996 15.4659 10.8282 14.939 10.8081H11.0324L11 10.9922C14.0401 11.7297 16.0517 13.5067 16.8865 15.6434L16.0368 11.5592Z" fill="#67BC9E"/>
<path d="M31.0404 12.6593C31.8648 12.6463 32.4623 12.8265 32.9263 13.0131L33.1538 13.1201L33.4947 11.1162C32.9957 10.9289 32.2134 10.728 31.2374 10.728C28.7475 10.728 26.9925 11.9821 26.9789 13.7792C26.9627 15.1071 28.2291 15.8485 29.1856 16.2911C30.1675 16.7448 30.4967 17.0331 30.4922 17.4382C30.4844 18.0571 29.7093 18.341 28.9854 18.341C27.9763 18.341 27.4404 18.2016 26.6128 17.8568L26.2881 17.7091L25.9336 19.7784C26.5233 20.037 27.6115 20.2593 28.7411 20.2709C31.3897 20.2709 33.111 19.0318 33.1292 17.1116C33.1402 16.061 32.4681 15.2594 31.0119 14.6016C30.1305 14.1725 29.5913 13.8874 29.5965 13.4545C29.5965 13.0702 30.0541 12.6593 31.0404 12.6593Z" fill="#67BC9E"/>
<path d="M39.9612 10.8975H38.0143C37.4097 10.8975 36.9599 11.0621 36.6942 11.6648L32.9529 20.1377H35.599C35.599 20.1377 36.0306 18.9984 36.1284 18.7489C36.4181 18.7489 38.989 18.7528 39.3552 18.7528C39.4304 19.0755 39.6624 20.1377 39.6624 20.1377H42L39.9612 10.8975ZM36.8536 16.8565C37.061 16.3257 37.8575 14.2726 37.8575 14.2726C37.8439 14.2979 38.0629 13.738 38.1932 13.39L38.363 14.1871C38.363 14.1871 38.8458 16.3944 38.9469 16.8565H36.8536Z" fill="#67BC9E"/>
</svg>
