<svg width="50" height="30" viewBox="0 0 50 30" fill="none" xmlns="http://www.w3.org/2000/svg">
<rect width="50" height="30" rx="3" fill="white"/>
<path d="M31.0645 6.18115C28.6759 6.18179 26.4999 7.08732 24.8598 8.57292C23.2185 7.08796 21.0437 6.18307 18.6583 6.18307C18.6386 6.18307 18.6188 6.18307 18.599 6.18307C13.5206 6.21625 9.40906 10.3476 9.40906 15.433C9.40906 20.5394 13.5532 24.6823 18.6583 24.6823C21.0437 24.6823 23.2179 23.7774 24.8592 22.2924C24.5165 21.9829 24.2064 21.6402 23.9135 21.2816H25.8241C25.5356 21.6351 25.221 21.9657 24.8847 22.272H24.8828C24.8834 22.2733 24.8834 22.2733 24.8834 22.2733C24.8758 22.2803 24.8675 22.2854 24.8598 22.293C26.5005 23.7806 28.6791 24.6861 31.0683 24.6854C36.1773 24.6842 40.3157 20.5413 40.3144 15.4336C40.3144 15.4317 40.3144 15.4304 40.3144 15.4292C40.3132 10.3214 36.171 6.18115 31.0645 6.18115ZM24.0188 9.52886H25.7762C26.0366 9.84219 26.2772 10.1734 26.4941 10.5193H23.3589C23.5593 10.1881 23.7814 9.84921 24.0188 9.52886ZM22.8114 11.4912H27.0263C27.1776 11.8121 27.3103 12.1427 27.4252 12.4822H22.3117C22.3621 12.3865 22.5408 12.001 22.8114 11.4912ZM18.1504 17.6512H17.0528L17.7062 14.2243L16.2034 17.6512H15.2104L15.0273 14.2473L14.3738 17.6512H13.3802L14.2302 13.1956H15.9424L16.0209 15.955L17.2365 13.1956H19.0144L18.1504 17.6512ZM22.0328 15.7259L21.7974 17.013L21.7584 17.2434L21.7323 17.4272L21.7189 17.551L21.7061 17.6493H20.7917L20.8178 17.2747C20.5441 17.5733 20.1644 17.7118 19.6679 17.7118C19.0795 17.7118 18.6743 17.3079 18.6743 16.7233C18.6743 15.8414 19.3801 15.3258 20.5951 15.3258C20.7125 15.3258 20.8695 15.3366 21.0393 15.3539C21.0654 15.2345 21.0788 15.1847 21.0788 15.1184C21.0788 14.8791 20.8823 14.7897 20.373 14.7897C20.0591 14.7897 19.7062 14.8274 19.4713 14.8899L19.3143 14.9295L19.2231 14.9531L19.3667 14.1369C19.9155 13.9978 20.2684 13.9461 20.6736 13.9461C21.6142 13.9461 22.1113 14.3143 22.1113 15.0086C22.1113 15.1886 22.0986 15.3232 22.0328 15.7259ZM24.2166 13.9378C25.1176 13.9378 25.6932 14.4502 25.6932 15.2537C25.6932 15.5223 25.6537 15.782 25.5612 16.1496H23.3927C23.3793 16.2051 23.3793 16.23 23.3793 16.2645C23.3793 16.6837 23.7061 16.8975 24.3334 16.8975C24.7258 16.8975 25.0787 16.8273 25.4705 16.6678L25.288 17.5752C24.9217 17.6735 24.5561 17.7214 24.177 17.7214C22.9486 17.7214 22.3079 17.1643 22.3079 16.0967C22.3079 14.8542 23.1183 13.9391 24.2166 13.9378ZM26.5056 20.3301H23.2236C23.0245 20.011 22.8375 19.6837 22.6774 19.3397H27.0442C26.884 19.6824 26.7047 20.0117 26.5056 20.3301ZM28.5164 14.8593C28.2286 14.8261 27.9414 14.8063 27.7187 14.8063C27.3652 14.8063 27.1827 14.9059 27.1827 15.1005C27.1827 15.2703 27.235 15.3111 27.6926 15.4949C28.2535 15.715 28.4768 16.0067 28.4768 16.5038C28.4768 17.3308 27.9408 17.7131 26.7641 17.7131C26.6211 17.7131 26.4252 17.7022 26.1636 17.6831C26.0327 17.6735 25.9287 17.6633 25.8624 17.6499L25.6664 17.6142L25.6141 17.604L25.7711 16.768C26.124 16.8675 26.4258 16.9109 26.7647 16.9109C27.1961 16.9109 27.392 16.8101 27.392 16.5842C27.392 16.4183 27.3263 16.3647 26.8821 16.1841C26.2944 15.9473 26.0327 15.6308 26.0327 15.1739C26.0327 14.5045 26.4641 13.9474 27.6932 13.9474C27.9548 13.9474 28.3862 13.9793 28.6727 14.0189L28.5164 14.8593ZM30.2298 16.8401C30.3466 16.8401 30.4379 16.8286 30.5163 16.805L30.3728 17.6091C30.0722 17.6914 29.8374 17.7278 29.5885 17.7278C29.0263 17.7278 28.7257 17.4451 28.7257 16.9313C28.7257 16.8292 28.7385 16.7208 28.7519 16.6059L28.8176 16.2492L28.8693 15.9626L29.3792 13.1956H30.4634L30.307 14.0278H30.8686L30.7116 14.9097H30.1494L29.8623 16.4215C29.8489 16.4872 29.8489 16.537 29.8489 16.5708C29.8489 16.759 29.9669 16.8388 30.2298 16.8401ZM32.903 15.0475C32.3804 15.0475 32.2113 15.4368 31.8188 17.6531H30.7206L31.3874 14.0284H32.381L32.2764 14.5785C32.6165 14.1503 32.8768 13.9895 33.2304 13.9895C33.2699 13.9895 33.3095 13.9933 33.3484 13.9984C33.3484 14.0003 33.3886 14.0074 33.4416 14.0201C33.4544 14.024 33.4671 14.024 33.559 14.0597L33.1685 15.0839L33.0377 15.0571C32.9853 15.0507 32.9464 15.0475 32.903 15.0475ZM34.8423 17.7482C33.598 17.7482 33.1028 16.9964 33.1028 16.0769C33.1028 14.7936 33.9521 13.9225 35.259 13.9225C36.3975 13.9225 36.9986 14.6385 36.9986 15.5574C36.9986 15.7827 36.9986 15.798 36.9725 16.0086C36.8021 17.214 35.9655 17.7494 34.8423 17.7482ZM37.0899 17.6512C36.9329 17.6512 36.8021 17.5242 36.8021 17.3672C36.8021 17.2128 36.9329 17.0858 37.0899 17.0858C37.2469 17.0858 37.3777 17.2128 37.3777 17.3672C37.3777 17.5248 37.2469 17.6512 37.0899 17.6512Z" fill="#67BC9E"/>
</svg>
