<svg width="14" height="14" viewBox="0 0 14 14" fill="none" xmlns="http://www.w3.org/2000/svg">
<g clip-path="url(#clip0)">
<path d="M12.0627 9.74408C11.2169 9.02072 10.3586 8.58256 9.52327 9.30482L9.02446 9.74135C8.65951 10.0582 7.98095 11.5388 5.35742 8.52082C2.73443 5.50665 4.29533 5.03735 4.66083 4.7232L5.16237 4.28613C5.99336 3.56223 5.67976 2.65093 5.08042 1.71286L4.71875 1.14466C4.11668 0.208782 3.46107 -0.405852 2.6279 0.316958L2.17771 0.710323C1.80948 0.978577 0.78017 1.85054 0.530492 3.50705C0.230005 5.49464 1.17791 7.77069 3.34961 10.268C5.51859 12.7664 7.64222 14.0214 9.65385 13.9995C11.3257 13.9815 12.3353 13.0844 12.6511 12.7582L13.1029 12.3643C13.9339 11.6421 13.4176 10.9067 12.5713 10.1817L12.0627 9.74408Z" fill="white"/>
</g>
<defs>
<clipPath id="clip0">
<rect width="14" height="14" fill="white"/>
</clipPath>
</defs>
</svg>
