<svg width="15" height="15" viewBox="0 0 15 15" fill="none" xmlns="http://www.w3.org/2000/svg">
<path d="M13.6816 1.78711H1.31836C0.592324 1.78711 0 2.37879 0 3.10547V11.8945C0 12.6187 0.589688 13.2129 1.31836 13.2129H13.6816C14.4059 13.2129 15 12.6232 15 11.8945V3.10547C15 2.38125 14.4103 1.78711 13.6816 1.78711ZM13.4996 2.66602L7.52795 8.63769L1.50466 2.66602H13.4996ZM0.878906 11.7125V3.28327L5.11169 7.47976L0.878906 11.7125ZM1.50038 12.334L5.73583 8.09854L7.21992 9.56988C7.39172 9.74022 7.66895 9.73966 7.84005 9.56853L9.28711 8.12148L13.4996 12.334H1.50038ZM14.1211 11.7125L9.90858 7.5L14.1211 3.28746V11.7125Z" fill="white"/>
</svg>
