<svg width="15" height="14" viewBox="0 0 15 14" fill="none" xmlns="http://www.w3.org/2000/svg">
<g clip-path="url(#clip0)">
<path d="M7.29389 0C3.27204 0 0 3.1402 0 7C0 10.8598 3.27204 14 7.29389 14C11.3157 14 14.5878 10.8598 14.5878 7C14.5878 3.1402 11.3157 0 7.29389 0ZM7.29389 12.5105C4.12785 12.5105 1.55187 10.0386 1.55187 7C1.55187 3.96138 4.12785 1.48948 7.29389 1.48948C10.4599 1.48948 13.0359 3.96138 13.0359 7C13.0359 10.0386 10.4599 12.5105 7.29389 12.5105Z" fill="white"/>
<path d="M11.0952 6.78408H7.81729V3.00166C7.81729 2.68336 7.54839 2.42529 7.21672 2.42529C6.88506 2.42529 6.61616 2.68336 6.61616 3.00166V7.36045C6.61616 7.67875 6.88506 7.93682 7.21672 7.93682H11.0952C11.4269 7.93682 11.6958 7.67875 11.6958 7.36045C11.6958 7.04215 11.4269 6.78408 11.0952 6.78408Z" fill="white"/>
</g>
<defs>
<clipPath id="clip0">
<rect width="14.5878" height="14" fill="white"/>
</clipPath>
</defs>
</svg>
