<svg width="38" height="37" viewBox="0 0 38 37" fill="none" xmlns="http://www.w3.org/2000/svg">
<path fill-rule="evenodd" clip-rule="evenodd" d="M20.7806 30.4186C20.6806 30.1186 20.5806 29.6186 20.5806 29.1186C20.6806 28.2186 20.8806 27.5186 21.0806 26.5186C21.2806 25.9186 21.2806 25.1186 20.9806 24.3186V22.5186C20.9806 22.6186 21.2806 23.1186 21.8806 24.0186C22.0806 24.2186 22.2806 24.6186 22.3806 25.2186C22.4806 25.6186 22.6806 26.3186 23.1806 27.2186C23.3806 27.5186 23.4806 28.0186 23.5806 28.6186C23.6806 28.9186 23.8806 29.4186 24.1806 29.9186C24.2806 30.0186 24.6806 30.0186 24.9806 29.8186C25.0806 29.7186 25.2806 29.6186 25.4806 29.5186C25.5806 29.4186 25.5806 29.3186 25.4806 29.1186C25.1806 29.1186 24.7806 28.7186 24.3806 28.0186C24.3806 27.8186 24.1806 26.9186 23.8806 25.5186C23.8806 24.7186 23.5806 23.9186 22.9806 23.3186L22.3806 21.8186C22.2806 20.6186 21.9806 19.5186 21.3806 18.6186C21.2806 18.5186 21.0806 18.0186 20.7806 17.1186C20.4806 16.1186 20.4806 15.2186 20.6806 14.2186C20.9806 13.5186 21.1806 12.9186 21.3806 12.4186C22.0806 12.3186 22.8806 12.3186 23.8806 12.3186C24.3806 12.4186 25.0806 12.4186 25.8806 12.3186C26.2806 12.2186 26.7806 12.2186 27.3806 12.3186C27.4806 12.4186 27.5806 12.5186 27.7806 12.6186C27.8806 12.6186 28.1806 12.6186 28.7806 12.6186C28.7806 12.6186 28.8806 12.6186 28.8806 12.5186C28.8806 12.4186 28.6806 12.4186 28.4806 12.4186C28.3806 12.4186 28.3806 12.3186 28.3806 12.3186H29.8806V12.2186C29.6806 12.0186 28.9806 11.9186 27.5806 11.9186C26.7806 11.8186 25.9806 11.7186 24.8806 11.4186C24.5806 11.3186 23.8806 11.2186 22.6806 11.3186C22.8806 11.0186 23.2806 10.7186 23.8806 10.4186C24.5806 10.2186 24.9806 10.0186 25.2806 9.61861C25.6806 9.31861 26.1806 9.01861 26.7806 8.81861C26.8806 8.91861 27.0806 8.91861 27.3806 8.81861C27.6806 8.81861 27.9806 8.71861 28.2806 8.51861C28.2806 8.31861 28.1806 8.31861 27.9806 8.41861C27.8806 8.41861 27.7806 8.41861 27.6806 8.41861C27.6806 8.31861 28.0806 8.11861 28.6806 7.91861C28.7806 7.91861 28.7806 7.81861 28.8806 7.81861C28.9806 7.71861 28.9806 7.71861 29.0806 7.61861C28.9806 7.51861 28.8806 7.51861 28.6806 7.61861C28.4806 7.71861 28.2806 7.71861 27.9806 7.91861L26.8806 8.31861C26.7806 8.31861 26.0806 8.61861 24.8806 9.01861C24.0806 9.11861 23.4806 9.41861 22.9806 9.81861C22.9806 9.91861 22.8806 9.91861 22.7806 10.0186C22.3806 10.1186 22.0806 10.3186 21.8806 10.5186H21.2806C20.9806 10.5186 20.6806 10.7186 20.4806 11.0186C20.4806 11.0186 20.3806 11.1186 20.2806 11.0186C20.0806 10.8186 19.8806 10.7186 19.4806 10.5186V9.71861C19.6806 9.61861 19.7806 9.51861 19.7806 9.41861V8.81861C19.7806 8.71861 19.6806 8.71861 19.5806 8.71861V8.01861C19.5806 7.81861 19.3806 7.61861 19.1806 7.41861C18.9806 7.31861 18.7806 7.21861 18.3806 7.31861C17.9806 7.41861 17.7806 7.61861 17.6806 8.01861V8.71861C17.5806 8.71861 17.5806 8.71861 17.5806 8.71861V9.31861C17.5806 9.41861 17.6806 9.61861 17.8806 9.61861V10.5186C17.6806 10.5186 17.4806 10.7186 17.0806 11.0186H16.9806C16.5806 10.6186 16.0806 10.4186 15.5806 10.5186C15.1806 10.2186 14.8806 10.0186 14.4806 10.0186C14.0806 9.51861 13.2806 9.21861 12.1806 9.01861C11.8806 8.91861 11.2806 8.71861 10.2806 8.31861C9.8806 8.21861 9.3806 8.01861 8.6806 7.61861C8.4806 7.51861 8.3806 7.51861 8.2806 7.61861C8.2806 7.81861 8.4806 7.91861 8.9806 8.01861C9.0806 8.01861 9.1806 8.11861 9.4806 8.31861C9.5806 8.31861 9.6806 8.41861 9.5806 8.51861C9.5806 8.51861 9.3806 8.51861 9.1806 8.41861C9.0806 8.41861 8.9806 8.41861 8.9806 8.51861C8.9806 8.61861 9.3806 8.81861 9.9806 8.91861C10.1806 8.91861 10.3806 8.91861 10.5806 8.81861C10.6806 8.81861 11.2806 9.21861 12.5806 10.0186C12.8806 10.3186 13.1806 10.4186 13.5806 10.4186C13.9806 10.6186 14.3806 10.9186 14.7806 11.3186C14.4806 11.3186 13.8806 11.3186 12.9806 11.4186C12.6806 11.4186 12.1806 11.5186 11.5806 11.7186C11.4806 11.8186 10.9806 11.8186 9.9806 12.0186C9.5806 12.0186 8.8806 12.1186 7.8806 12.3186C7.7806 12.3186 7.6806 12.4186 7.6806 12.5186C7.8806 12.6186 8.4806 12.6186 9.2806 12.5186C9.3806 12.6186 9.2806 12.6186 9.0806 12.6186C8.8806 12.6186 8.8806 12.7186 8.8806 12.8186C8.8806 12.9186 9.0806 12.9186 9.3806 12.9186C9.8806 12.9186 10.1806 12.8186 10.2806 12.6186C10.4806 12.5186 10.7806 12.5186 11.3806 12.6186C12.1806 12.7186 12.9806 12.7186 13.6806 12.6186C13.6806 12.5186 14.6806 12.6186 16.3806 12.7186C16.3806 12.9186 16.5806 13.6186 17.0806 14.6186C17.1806 15.2186 17.6806 16.3186 16.7806 18.0186L16.0806 19.1186C15.9806 19.3186 15.5806 20.2186 15.0806 22.0186C14.9806 22.3186 14.7806 23.1186 14.2806 24.1186C14.0806 24.5186 13.8806 25.1186 13.7806 25.9186C13.6806 26.4186 13.5806 27.1186 13.4806 28.1186C13.3806 28.2186 13.2806 28.4186 13.1806 28.6186C12.9806 28.8186 12.7806 29.0186 12.3806 29.2186C12.2806 29.2186 12.1806 29.3186 12.2806 29.5186C12.2806 29.6186 12.4806 29.7186 12.7806 29.8186C12.8806 29.9186 13.1806 30.0186 13.5806 30.0186C13.5806 30.0186 13.5806 29.9186 13.6806 29.8186C13.7806 29.7186 13.9806 29.4186 14.1806 28.9186C14.2806 28.8186 14.2806 28.5186 14.3806 28.1186C14.4806 27.6186 14.5806 27.0186 14.8806 26.4186C15.1806 26.0186 15.3806 25.3186 15.5806 24.3186C15.9806 23.7186 16.3806 23.1186 16.7806 22.4186C16.8806 22.5186 16.7806 23.2186 16.6806 24.8186C16.6806 25.2186 16.5806 25.7186 16.6806 26.2186L17.1806 28.5186C17.2806 28.7186 17.2806 29.0186 17.2806 29.5186C17.2806 29.7186 17.1806 29.9186 17.1806 30.2186C17.1806 30.2186 17.0806 30.3186 16.8806 30.5186C16.7806 30.6186 16.7806 30.7186 16.6806 30.9186H18.0806L18.1806 29.4186C17.9806 29.1186 17.8806 27.2186 17.9806 26.8186C18.0806 26.2186 18.0806 25.7186 17.9806 25.2186C18.0806 24.6186 17.9806 24.0186 18.2806 23.3186C18.2806 23.2186 18.2806 22.8186 18.3806 21.6186C18.4806 21.4186 18.6806 20.8186 18.7806 19.9186L18.8806 19.1186L18.9806 19.9186C18.9806 20.6186 19.1806 21.3186 19.2806 21.6186L19.3806 23.3186C19.5806 23.8186 19.5806 24.4186 19.6806 25.2186C19.5806 25.6186 19.5806 26.1186 19.6806 26.8186C19.6806 27.0186 19.8806 27.6186 19.8806 28.8186C19.8806 29.0186 19.7806 29.2186 19.6806 29.5186C19.6806 29.5186 19.6806 30.0186 19.6806 31.0186H20.8806H21.0806C20.9806 30.8186 20.9806 30.6186 20.7806 30.4186Z" fill="#67BC9E"/>
<path fill-rule="evenodd" clip-rule="evenodd" d="M8.18058 2.41861C1.78058 6.81861 -1.51942 14.8186 0.680579 22.8186C3.38058 32.8186 13.6806 38.8186 23.6806 36.1186C31.8806 33.9186 37.2806 26.6186 37.5806 18.6186C36.4806 25.2186 31.5806 30.9186 24.6806 32.7186C15.2806 35.2186 5.48058 29.6186 2.98058 20.2186C1.18058 13.5186 3.48058 6.71861 8.18058 2.41861Z" fill="#67BC9E"/>
<path fill-rule="evenodd" clip-rule="evenodd" d="M28.6806 28.9186C34.0806 25.2186 36.8806 18.4186 35.0806 11.7186C32.7806 3.31861 24.0806 -1.68139 15.6806 0.51861C8.78059 2.31861 4.18059 8.51861 3.98059 15.3186C4.98059 9.71861 8.98059 4.91861 14.8806 3.41861C22.8806 1.31861 31.0806 6.01861 33.1806 14.0186C34.5806 19.6186 32.6806 25.3186 28.6806 28.9186Z" fill="#67BC9E"/>
</svg>
