<svg width="70" height="55" viewBox="0 0 70 55" fill="none" xmlns="http://www.w3.org/2000/svg">
<path d="M26.4459 36.9828C26.4975 36.8279 26.4975 36.6729 26.4975 36.5179C26.4975 35.9498 26.2909 35.2266 26.0327 34.4002" stroke="#67BC9E" stroke-miterlimit="10" stroke-linecap="round" stroke-linejoin="round"/>
<path d="M42.9229 36.5697C42.9229 36.7247 42.9229 36.8796 42.9745 37.0346C44.4208 42.9746 41.9931 54.3897 37.861 54.3897C34.142 54.3897 41.5283 40.1337 34.7619 40.1337C27.9954 40.1337 35.33 54.3897 31.6627 54.3897C27.5306 54.3897 25.0513 42.9746 26.4975 37.0346" stroke="#67BC9E" stroke-miterlimit="10" stroke-linecap="round" stroke-linejoin="round" stroke-dasharray="3 3"/>
<path d="M44.6274 30.2681C44.1625 32.5408 42.9745 35.0717 42.9229 36.5696" stroke="#67BC9E" stroke-miterlimit="10" stroke-linecap="round" stroke-linejoin="round"/>
<path d="M63.1188 36.9829C63.0672 36.828 63.0672 36.673 63.0672 36.518C63.0672 34.7102 64.9267 31.1979 64.9267 28.7186C64.9267 25.981 63.687 22.6753 60.7429 22.6753C57.7987 22.6753 57.3855 24.0699 54.8545 24.0699C52.3236 24.0699 51.9103 22.6753 48.9662 22.6753C46.3836 22.6753 45.1439 25.1546 44.8857 27.5822" stroke="#67BC9E" stroke-miterlimit="10" stroke-linecap="round" stroke-linejoin="round"/>
<path d="M46.5902 36.9828C45.1439 42.9228 47.5716 54.338 51.7554 54.338C55.4743 54.338 48.0881 40.082 54.8545 40.082C61.6209 40.082 54.2863 54.338 57.9536 54.338C62.0858 54.338 64.5651 42.9228 63.1189 36.9828" stroke="#67BC9E" stroke-miterlimit="10" stroke-linecap="round" stroke-linejoin="round" stroke-dasharray="3 3"/>
<path d="M44.9373 30.1649C45.4022 32.4375 46.6418 35.0201 46.6418 36.5181C46.6418 36.673 46.6418 36.828 46.5902 36.9829" stroke="#67BC9E" stroke-miterlimit="10" stroke-linecap="round" stroke-linejoin="round"/>
<path d="M6.30155 36.9829C6.71476 35.3301 4.49372 31.4561 4.49372 28.7186C4.49372 25.981 5.73337 22.6753 8.67754 22.6753C11.6217 22.6753 12.0349 24.0699 14.5659 24.0699C17.0968 24.0699 17.5101 22.6753 20.4542 22.6753C23.3984 22.6753 24.638 25.981 24.638 28.7186C24.638 31.4561 22.417 35.3301 22.8302 36.9829" stroke="#67BC9E" stroke-miterlimit="10" stroke-linecap="round" stroke-linejoin="round"/>
<path d="M22.8302 36.9828C22.8819 37.2411 22.9335 37.4994 22.9852 37.7576" stroke="#67BC9E" stroke-linecap="round" stroke-linejoin="round"/>
<path d="M23.2434 40.2369C23.45 46.3319 21.1774 54.3896 17.7167 54.3896C13.9977 54.3896 21.384 40.1336 14.6175 40.1336C7.85112 40.1336 15.1857 54.3896 11.5184 54.3896C7.79947 54.3896 5.42347 45.1955 6.04329 38.9973" stroke="#67BC9E" stroke-linecap="round" stroke-linejoin="round" stroke-dasharray="2.99 2.99"/>
<path d="M6.14659 37.7576C6.19824 37.4994 6.24989 37.2411 6.30154 36.9828" stroke="#67BC9E" stroke-linecap="round" stroke-linejoin="round"/>
<path d="M44.7307 27.6856C44.4725 25.2063 43.1812 22.727 40.6502 22.727C37.8093 22.727 37.2928 24.0183 35.0201 24.1216C34.9168 24.1216 34.8652 24.1216 34.7619 24.1216C33.5739 24.1216 32.8507 23.8117 32.1276 23.5018C31.3012 23.1402 30.4231 22.727 28.8735 22.727C25.9294 22.727 24.6897 26.0327 24.6897 28.7703C24.6897 29.5451 24.9996 30.8364 25.2062 31.5595C25.2579 31.8178 25.5161 31.9727 25.8261 31.9727C27.5306 31.7145 33.2123 30.7847 36.2081 29.9583C39.3589 29.0285 42.1998 28.2538 44.7307 27.6856ZM44.7307 27.6856C44.7824 27.6856 44.834 27.6856 44.834 27.6339C50.1542 26.3943 53.8215 26.0844 55.526 27.3757C56.1975 27.8922 56.559 28.6153 56.559 29.4934C56.559 30.1649 55.9909 30.7331 55.3194 30.7331C54.6479 30.7331 54.0797 30.1649 54.0797 29.4934C54.0797 29.4418 54.0797 29.3901 54.0797 29.3901C54.0797 29.3901 53.4599 28.5637 48.398 29.4418C47.3133 29.6484 46.177 29.855 44.9373 30.1649C44.834 30.2165 44.7307 30.2165 44.5758 30.2682C42.0965 30.8364 39.4105 31.6111 36.7763 32.2826C31.4045 33.7289 27.8921 34.4004 26.0327 34.4004C24.6381 34.4004 23.6567 33.8838 23.6567 33.0058" stroke="#67BC9E" stroke-miterlimit="10" stroke-linecap="round" stroke-linejoin="round"/>
<path d="M40.7535 22.7269C45.6088 20.6092 54.1314 15.4439 68.3874 3.0991C68.9555 2.73754 69.1105 1.96276 68.7489 1.34293C68.3874 0.774758 67.6126 0.619802 66.9928 0.981366C38.2225 24.4831 32.4375 23.5533 32.0759 23.45" stroke="#67BC9E" stroke-miterlimit="10" stroke-linecap="round" stroke-linejoin="round"/>
<path d="M0.774783 36.9829C1.70452 36.8279 2.58261 36.4664 3.35739 35.8982C3.6673 35.6916 4.08052 35.5366 4.49373 35.5366C5.63008 35.5366 6.35321 36.5697 6.35321 36.5697C9.40068 37.2928 12.1899 37.6027 14.5659 37.706C16.9419 37.6027 19.7311 37.2928 22.7786 36.5697C22.7786 36.5697 23.5017 35.5366 24.638 35.5366C25.7744 35.5366 26.4975 36.5697 26.4975 36.5697C29.545 37.2928 32.3342 37.6027 34.7102 37.706C37.0862 37.6027 39.8754 37.2928 42.9229 36.5697C42.9229 36.5697 43.646 35.5366 44.7824 35.5366C45.9187 35.5366 46.6418 36.5697 46.6418 36.5697C49.6893 37.2928 52.4785 37.6027 54.8545 37.706C57.2305 37.6027 60.0197 37.2928 63.0672 36.5697C63.0672 36.5697 63.7903 35.5366 64.9267 35.5366C65.4432 35.5366 65.9081 35.7949 66.218 36.0015C66.7862 36.4147 67.406 36.7246 68.0775 36.8796" stroke="#67BC9E" stroke-miterlimit="10" stroke-linecap="round" stroke-linejoin="round"/>
</svg>
