<svg width="43" height="43" viewBox="0 0 43 43" fill="none" xmlns="http://www.w3.org/2000/svg">
<path d="M42.4486 8.35415H37.955V3.86772C37.955 3.72154 37.897 3.58135 37.7936 3.47799C37.6902 3.37463 37.5499 3.31656 37.4037 3.31656H35.1982C34.504 2.40802 33.6294 1.65266 32.6294 1.09783C31.6294 0.542997 30.5255 0.20066 29.3869 0.0922798C27.3732 -0.162313 25.328 0.119558 23.4583 0.909347C21.5886 1.69914 19.961 2.96879 18.7401 4.58974C17.5183 2.96703 15.8888 1.69628 14.017 0.906408C12.1453 0.116538 10.0978 -0.164338 8.08232 0.0922798C6.77364 0.212994 5.51237 0.64271 4.40234 1.34605C3.2923 2.04938 2.36527 3.00622 1.69756 4.13778C-0.882812 8.39273 -0.513401 15.3704 2.75066 23.7921C8.29183 38.1608 10.1665 43 13.0335 43C13.1698 43.0008 13.3016 42.9511 13.4034 42.8606C13.5053 42.77 13.5699 42.6449 13.5849 42.5095C14.1914 36.9979 16.1322 28.2455 18.7401 28.2455C21.3481 28.2455 23.2833 36.9924 23.8953 42.5095C23.9103 42.6449 23.975 42.77 24.0768 42.8606C24.1786 42.9511 24.3104 43.0008 24.4467 43C27.3138 43 29.1829 38.1608 34.7351 23.7921C34.9612 23.2024 35.1762 22.6237 35.3747 22.056H37.4147C37.5609 22.056 37.7012 21.9979 37.8046 21.8945C37.908 21.7912 37.9661 21.651 37.9661 21.5048V17.0184H42.4486C42.5949 17.0184 42.7351 16.9603 42.8385 16.8569C42.9419 16.7536 43 16.6134 43 16.4672V8.90531C43 8.75913 42.9419 8.61894 42.8385 8.51558C42.7351 8.41222 42.5949 8.35415 42.4486 8.35415ZM33.6985 23.3953C29.1553 35.146 26.9003 40.9883 24.9154 41.7985C24.5349 38.7395 22.8202 27.1432 18.7401 27.1432C14.6601 27.1432 12.9398 38.7175 12.5594 41.7985C10.5745 40.9883 8.3194 35.146 3.77619 23.3953C0.644458 15.2988 0.241964 8.6628 2.64038 4.70548C3.22271 3.72071 4.03078 2.88836 4.99801 2.27699C5.96525 1.66562 7.06395 1.29275 8.20362 1.18909C10.1476 0.920163 12.1279 1.21447 13.9096 2.03706C15.6912 2.85966 17.1993 4.17601 18.2549 5.82984C18.303 5.91466 18.3728 5.98522 18.457 6.0343C18.5413 6.08339 18.6371 6.10925 18.7346 6.10925C18.8321 6.10925 18.9279 6.08339 19.0122 6.0343C19.0965 5.98522 19.1662 5.91466 19.2143 5.82984C20.269 4.17646 21.7761 2.86033 23.5568 2.03772C25.3375 1.21512 27.3169 0.92058 29.2601 1.18909C30.9558 1.35178 32.5404 2.10477 33.7371 3.31656H29.839C29.6928 3.31656 29.5525 3.37463 29.4491 3.47799C29.3457 3.58135 29.2877 3.72154 29.2877 3.86772V8.35415H24.8051C24.6589 8.35415 24.5186 8.41222 24.4152 8.51558C24.3118 8.61894 24.2537 8.75913 24.2537 8.90531V16.4672C24.2537 16.6134 24.3118 16.7536 24.4152 16.8569C24.5186 16.9603 24.6589 17.0184 24.8051 17.0184H29.2932V21.5048C29.2932 21.651 29.3513 21.7912 29.4547 21.8945C29.5581 21.9979 29.6983 22.056 29.8445 22.056H34.1782C34.0312 22.4969 33.8713 22.9433 33.6985 23.3953ZM41.8973 15.916H37.4037C37.2575 15.916 37.1172 15.9741 37.0138 16.0775C36.9104 16.1808 36.8523 16.321 36.8523 16.4672V20.9536H30.3904V16.4672C30.3904 16.321 30.3323 16.1808 30.2289 16.0775C30.1255 15.9741 29.9852 15.916 29.839 15.916H25.3565V9.45647H29.8445C29.9908 9.45647 30.131 9.3984 30.2344 9.29504C30.3378 9.19167 30.3959 9.05148 30.3959 8.90531V4.41888H36.8523V8.90531C36.8523 9.05148 36.9104 9.19167 37.0138 9.29504C37.1172 9.3984 37.2575 9.45647 37.4037 9.45647H41.8973V15.916Z" fill="#67BC9E"/>
</svg>
