<svg width="56" height="51" viewBox="0 0 56 51" fill="none" xmlns="http://www.w3.org/2000/svg">
<path d="M20.6042 21.257L22.6661 24.1942L24.728 21.257" stroke="#67BC9E" stroke-miterlimit="10" stroke-linecap="round" stroke-linejoin="round"/>
<path d="M22.6661 24.1943V17.2278" stroke="#67BC9E" stroke-miterlimit="10" stroke-linecap="round" stroke-linejoin="round"/>
<path d="M32.9757 12.5206C32.4134 10.8636 31.2887 7.73813 31.2887 5.96825C31.2887 3.59587 32.3384 0.620972 34.8502 0.620972C37.362 0.620972 37.9618 2.35319 39.4614 2.35319C40.961 2.35319 41.5233 0.620972 44.0726 0.620972C46.5844 0.620972 47.6341 3.59587 47.6341 5.96825C47.6341 7.73813 46.5094 10.9013 45.9096 12.5206" stroke="#67BC9E" stroke-miterlimit="10" stroke-linecap="round" stroke-linejoin="round"/>
<path d="M15.9179 12.5206C15.4681 11.2026 14.5308 8.79258 14.1559 7.09802C14.1184 6.90973 14.081 6.72145 14.0435 6.53317C14.006 6.34488 14.006 6.1566 14.006 5.93065C14.006 3.55827 15.0932 0.583374 17.7924 0.583374C20.4542 0.583374 21.0915 2.31559 22.6661 2.31559C24.2406 2.31559 24.8779 0.583374 27.5397 0.583374C30.2015 0.583374 31.3261 3.55827 31.3261 5.93065C31.3261 7.8135 29.9765 10.8637 29.4142 12.483" stroke="#67BC9E" stroke-miterlimit="10" stroke-linecap="round" stroke-linejoin="round"/>
<path d="M13.1812 12.5206C14.3059 10.1483 14.1559 9.01855 14.1559 7.13571C14.1559 4.76332 8.64497 1.26123 6.99543 1.26123C2.57167 1.26123 1.44698 7.17336 4.67108 12.5206C4.67108 12.5206 7.33284 13.4244 13.1812 12.5206Z" stroke="#67BC9E" stroke-miterlimit="10" stroke-linecap="round" stroke-linejoin="round"/>
<path d="M4.67111 29.6921C4.67111 29.6921 6.32065 43.2863 8.60751 43.2863C10.8944 43.2863 10.332 32.6294 12.169 30.257" stroke="#67BC9E" stroke-miterlimit="10" stroke-linecap="round" stroke-linejoin="round"/>
<path d="M0.622223 28.4118C3.50892 27.734 4.67109 29.6921 4.67109 29.6921C4.67109 29.6921 8.30758 33.6461 12.169 30.257C12.9938 29.5415 13.4062 29.052 14.7558 29.052C16.1054 29.052 19.442 30.5206 22.3287 30.5206C26.1901 30.5206 29.2642 28.6377 30.6513 28.6377C31.9635 28.6377 33.2381 30.1817 33.2381 30.1817C33.2381 30.1817 37.8868 32.2151 45.8721 29.5792C45.8721 29.5792 47.2217 28.1859 50.1459 28.4495" stroke="#67BC9E" stroke-miterlimit="10" stroke-linecap="round" stroke-linejoin="round"/>
<path d="M42.4606 22.4243C43.2104 22.4243 44.1101 22.7632 44.2975 23.5164C45.2348 26.9431 45.8721 29.6168 45.8721 29.6168C45.7596 30.031 45.6847 30.4076 45.7596 30.6712C46.9968 35.7925 45.7222 45.5833 42.1606 45.5833C38.974 45.5833 45.2723 33.3072 39.4989 33.3072C33.688 33.3072 39.9863 45.5833 36.8371 45.5833C33.2756 45.5833 32.001 35.7925 33.2381 30.6712C33.3131 30.3699 33.2381 30.031 33.1257 29.6168C33.1257 29.6168 33.5006 26.9431 34.4753 23.5164C34.6627 22.7632 35.5625 22.4243 36.3123 22.4243H42.4606V22.4243Z" stroke="#67BC9E" stroke-miterlimit="10" stroke-linecap="round" stroke-linejoin="round"/>
<path d="M4.67111 29.6922L5.94576 24.6085C6.09571 24.006 6.65806 23.5541 7.29538 23.5541H9.76969C10.407 23.5541 10.9319 24.006 11.0818 24.6085C11.5317 26.416 12.3565 29.9557 12.1315 30.257" stroke="#67BC9E" stroke-miterlimit="10" stroke-linecap="round" stroke-linejoin="round"/>
<path d="M15.9179 12.5206C15.9179 12.5206 22.6661 14.8177 29.3767 12.5206" stroke="#67BC9E" stroke-miterlimit="10" stroke-linecap="round" stroke-linejoin="round"/>
<path d="M45.9471 12.5206C40.736 15.2319 33.1631 12.5583 33.0132 12.5206" stroke="#67BC9E" stroke-miterlimit="10" stroke-linecap="round" stroke-linejoin="round"/>
</svg>
