<svg width="47" height="44" viewBox="0 0 47 44" fill="none" xmlns="http://www.w3.org/2000/svg">
<path d="M30.6323 23.4667C30.7813 23.4676 30.9253 23.4147 31.0366 23.3184C31.1479 23.222 31.2185 23.0889 31.2349 22.9448C31.6327 19.4788 32.7596 15.614 33.754 15.614C34.7483 15.614 35.8753 19.4788 36.273 22.9448C36.2894 23.0889 36.3601 23.222 36.4714 23.3184C36.5826 23.4147 36.7267 23.4676 36.8757 23.4667C38.6474 23.4667 39.6056 21.0563 42.7816 13.0628C45.1017 7.19818 44.3605 4.00194 43.33 2.34811C42.9386 1.70995 42.3989 1.17004 41.7542 0.771778C41.1094 0.37352 40.3776 0.128026 39.6177 0.0550298C38.1153 -0.138213 36.5906 0.18093 35.3028 0.958186C34.8357 1.23967 34.2973 1.38879 33.7479 1.38879C33.1986 1.38879 32.6602 1.23967 32.1931 0.958186C30.9107 0.184035 29.3927 -0.135025 27.8963 0.0550298C27.1359 0.126662 26.4036 0.371596 25.7587 0.769987C25.1137 1.16838 24.5743 1.70902 24.184 2.34811C23.1475 4.00194 22.3761 7.2099 24.7264 13.0628C27.9023 21.0563 28.8605 23.4667 30.6323 23.4667ZM25.2085 2.94044C25.5009 2.45376 25.9092 2.04257 26.3989 1.74149C26.8887 1.44041 27.4456 1.25826 28.0229 1.21037C29.2533 1.04918 30.5029 1.31272 31.5543 1.95518C32.2134 2.35186 32.973 2.56199 33.7479 2.56199C34.5229 2.56199 35.2825 2.35186 35.9416 1.95518C36.9953 1.3241 38.2402 1.06524 39.467 1.2221C40.047 1.27602 40.6054 1.46376 41.0959 1.76975C41.5864 2.07573 41.9949 2.49114 42.2874 2.98149C43.5469 5.0048 43.3179 8.41802 41.6426 12.6288C39.6418 17.6783 38.3039 21.0505 37.3638 22.0123C37.0143 19.5081 36.032 14.4352 33.7479 14.4352C31.4639 14.4352 30.4816 19.5139 30.1321 22.0123C29.198 21.0563 27.8541 17.6842 25.8533 12.6288C24.178 8.41802 23.949 5.0048 25.2145 2.95217L25.2085 2.94044ZM46.8313 26.1175C46.713 25.826 46.5359 25.5605 46.3104 25.3368C46.0849 25.113 45.8156 24.9354 45.5185 24.8146C45.2213 24.6938 44.9022 24.6321 44.5802 24.6333C44.2581 24.6345 43.9396 24.6985 43.6433 24.8215L21.4299 33.9938L12.0528 31.7124L14.5357 29.2903L20.074 28.393C20.6667 28.2576 21.1847 27.909 21.5241 27.4172C21.8636 26.9254 21.9992 26.3268 21.9038 25.7417C21.8085 25.1566 21.4891 24.6283 21.01 24.2629C20.5308 23.8974 19.9273 23.722 19.3207 23.7717L10.0822 25.1206C9.46319 25.2092 8.89472 25.5034 8.47315 25.9533L2.5311 32.2637H0.602642C0.442811 32.2637 0.289527 32.3255 0.17651 32.4355C0.0634924 32.5455 0 32.6946 0 32.8502V43.4065C0 43.5621 0.0634924 43.7112 0.17651 43.8212C0.289527 43.9312 0.442811 43.993 0.602642 43.993C0.656456 44.0023 0.711541 44.0023 0.765355 43.993H25.094C25.2244 43.993 25.3513 43.9518 25.4556 43.8757L46.0358 28.8563C46.4585 28.5478 46.7654 28.1126 46.9091 27.6177C47.0528 27.1229 47.0255 26.5958 46.8313 26.1175ZM45.3187 27.9356L24.8951 42.8201H1.20528V33.4366H2.79626C2.87991 33.4372 2.96275 33.4208 3.03953 33.3885C3.11631 33.3562 3.18533 33.3086 3.24221 33.249L9.35903 26.7509C9.59723 26.4996 9.91586 26.3343 10.263 26.2818L19.5015 24.9446C19.6717 24.9204 19.8453 24.932 20.0106 24.9785C20.1759 25.025 20.329 25.1055 20.4597 25.2144C20.6301 25.3614 20.7543 25.5524 20.8178 25.7652C20.8813 25.9781 20.8815 26.2041 20.8185 26.417C20.7554 26.63 20.6316 26.8212 20.4615 26.9685C20.2913 27.1159 20.0817 27.2132 19.8571 27.2494L14.132 28.176C14.0077 28.1992 13.8928 28.2561 13.8005 28.3402L10.7873 31.2726C10.7557 31.3133 10.7275 31.3565 10.7029 31.4016L9.55188 31.1201C9.39931 31.0894 9.24046 31.1174 9.10865 31.1982C8.97684 31.279 8.88231 31.4064 8.8449 31.5536C8.80748 31.7007 8.83008 31.8563 8.90796 31.9876C8.98584 32.1189 9.11294 32.2157 9.26261 32.2578L21.3154 35.1902C21.4432 35.2169 21.5765 35.2025 21.6951 35.1491L44.1134 25.8888C44.2621 25.8275 44.422 25.7959 44.5835 25.7959C44.745 25.7959 44.9048 25.8275 45.0535 25.8888C45.2033 25.9485 45.3391 26.0369 45.453 26.1487C45.5669 26.2605 45.6565 26.3935 45.7164 26.5398C45.8157 26.78 45.8306 27.0455 45.7586 27.2948C45.6867 27.5441 45.532 27.7632 45.3187 27.918V27.9356Z" fill="#67BC9E"/>
</svg>
