<svg width="44" height="44" viewBox="0 0 44 44" fill="none" xmlns="http://www.w3.org/2000/svg">
<path d="M43.45 13.1787H41.095C40.8815 12.5846 40.5871 12.0144 40.1989 11.4742C39.9572 11.1374 39.7821 10.7496 39.5968 10.3387L39.5651 10.2694C39.5549 10.2345 39.5592 10.1266 39.5619 10.0554L39.5656 9.9469C39.6102 7.85862 39.477 6.15357 39.1467 4.58145C38.9286 3.54375 37.9001 0.7959 36.647 0.155397C36.6406 0.152141 36.6336 0.152846 36.6272 0.149858C36.6203 0.146635 36.616 0.140392 36.6088 0.137404C36.0948 -0.0774398 35.5921 -0.0395736 35.156 0.245631C33.4941 1.33301 33.3352 6.05501 33.3201 6.99951C33.3201 7.43115 32.9753 7.78178 32.5491 7.79021C32.1229 7.78178 31.7781 7.43108 31.7781 6.99065C31.763 6.05527 31.6041 1.33301 29.9428 0.245631C29.5066 -0.0395736 29.0044 -0.0766342 28.4899 0.137404C28.4657 0.147609 28.4421 0.159694 28.4195 0.173122C27.5054 0.720973 27.0349 1.50703 26.7266 2.13089C26.2566 3.08264 25.9461 4.14639 25.7775 5.38335C25.6292 6.47288 25.4901 9.54004 25.5068 10.0151C25.5165 10.3014 25.4477 10.5619 25.2957 10.8125L25.2012 10.9706C25.1093 11.1261 25.0186 11.2822 24.9084 11.428C24.4957 11.9744 24.1861 12.5573 23.966 13.1787H20.3411C20.1276 12.5846 19.8332 12.0144 19.445 11.4742C19.2022 11.1358 19.026 10.7461 18.8402 10.3336L18.8106 10.2694C18.8004 10.2345 18.8047 10.1266 18.8074 10.0554L18.8112 9.9469C18.8563 7.86184 18.7236 6.15706 18.3928 4.58118C18.1742 3.54321 17.1445 0.795094 15.8925 0.155129C15.886 0.151805 15.8788 0.15251 15.8722 0.149455C15.8655 0.146333 15.8613 0.140291 15.8544 0.137404C15.3398 -0.0766342 14.8382 -0.0395736 14.4021 0.245631C12.7402 1.33274 12.5813 6.05501 12.5662 6.99951C12.5662 7.43115 12.2214 7.78178 11.7952 7.79021C11.369 7.78178 11.0242 7.43108 11.0242 6.99065C11.0091 6.05501 10.8501 1.33301 9.18833 0.245631C8.7522 -0.0395736 8.25 -0.0766341 7.73545 0.137404C7.71128 0.147609 7.68765 0.159694 7.66455 0.17339C6.75146 0.720973 6.28096 1.5073 5.97266 2.13089C5.50322 3.08184 5.19224 4.14558 5.02305 5.38362C4.8748 6.4761 4.73569 9.54165 4.75234 10.0151C4.76201 10.3014 4.69326 10.5622 4.5418 10.8125L4.44888 10.9685C4.35596 11.1248 4.26465 11.2819 4.15454 11.428C3.74171 11.9746 3.43193 12.5574 3.21175 13.1787H0.55C0.245996 13.1787 0 13.425 0 13.7287C0 14.0324 0.245996 14.2787 0.55 14.2787H2.92819C2.85041 14.7412 2.81187 15.2225 2.82305 15.73C2.84507 16.7574 3.06582 17.5728 3.51753 18.296C4.31729 19.5757 5.89854 20.373 7.56196 20.373C7.73223 20.373 7.90303 20.3647 8.07383 20.3478C8.81558 20.2739 9.52241 20.0934 10.175 19.8114C11.2272 19.3557 12.2251 19.3477 13.2247 19.7843C14.5127 20.3472 15.7932 20.507 17.0339 20.2572C18.9551 19.8692 20.2904 18.6024 20.6057 16.8684C20.7696 15.9646 20.7716 15.1014 20.6294 14.2787H23.6826C23.6047 14.7412 23.5661 15.2226 23.577 15.7302C23.6 16.7591 23.8208 17.5744 24.272 18.296C25.0717 19.5757 26.653 20.373 28.3164 20.373C28.4867 20.373 28.6575 20.3647 28.8283 20.3478C29.5797 20.2728 30.2667 20.0975 30.9289 19.8114C31.9811 19.3557 32.9791 19.3471 33.9786 19.7843C35.2671 20.348 36.5476 20.5062 37.7883 20.2572C39.7101 19.8692 41.0454 18.6024 41.3596 16.8684C41.5235 15.9646 41.5255 15.1014 41.3833 14.2787H43.45C43.754 14.2787 44 14.0324 44 13.7287C44 13.425 43.754 13.1787 43.45 13.1787ZM5.03271 12.0902C5.17397 11.9031 5.28623 11.7129 5.39526 11.5287L5.48281 11.3818C5.74438 10.9491 5.86846 10.4765 5.85127 9.97752C5.8373 9.55911 5.97158 6.57385 6.11338 5.53213C6.26592 4.41414 6.54253 3.46077 6.95879 2.61804C7.31382 1.89939 7.68496 1.4544 8.19414 1.13884C8.38911 1.06687 8.49868 1.1085 8.58623 1.16597C9.45205 1.73262 9.89033 4.92359 9.92417 6.99951C9.92417 8.02173 10.7376 8.8521 11.749 8.8855C11.7598 8.88614 11.7689 8.89175 11.7799 8.89175C11.7851 8.89175 11.79 8.89024 11.7952 8.8902C11.8004 8.89024 11.8053 8.89175 11.8105 8.89175C11.8215 8.89175 11.8306 8.88614 11.8414 8.8855C12.8527 8.8521 13.6662 8.0219 13.6662 7.00838C13.7 4.92359 14.1378 1.73262 15.0042 1.16597C15.0937 1.10746 15.2078 1.06754 15.4092 1.1461C16.1079 1.52919 17.0735 3.65463 17.3164 4.80757C17.629 6.29858 17.7547 7.92415 17.7112 9.92407L17.7085 10.0116C17.701 10.2012 17.6902 10.4612 17.8057 10.716L17.8374 10.7861C18.0377 11.2298 18.2445 11.6885 18.5518 12.116C18.7989 12.4601 19.0023 12.8141 19.1649 13.1787H14.4294V13.0111C14.4294 11.9286 13.5486 11.048 12.4663 11.048H11.0494C9.96714 11.048 9.08628 11.9286 9.08628 13.0111V13.1787H4.39517C4.56325 12.7977 4.77272 12.4346 5.03271 12.0902ZM13.3294 13.0111V14.4465C13.3294 14.9224 12.9422 15.3097 12.4663 15.3097H11.0494C10.5735 15.3097 10.1863 14.9224 10.1863 14.4465V13.0111C10.1863 12.5352 10.5735 12.148 11.0494 12.148H12.4663C12.9422 12.148 13.3294 12.5352 13.3294 13.0111ZM19.5229 16.672C19.2919 17.9463 18.28 18.8833 16.8164 19.1787C15.7889 19.3863 14.7582 19.2545 13.6651 18.7767C12.3884 18.2181 11.0671 18.227 9.73833 18.8017C9.18242 19.042 8.60234 19.1897 7.96533 19.2531C6.54575 19.396 5.10469 18.7603 4.45049 17.7132C4.10835 17.1654 3.94077 16.5276 3.92305 15.7061C3.91187 15.2025 3.9536 14.7285 4.04484 14.2787H9.08628V14.4465C9.08628 15.5291 9.96714 16.4097 11.0494 16.4097H12.4663C13.5486 16.4097 14.4294 15.5291 14.4294 14.4465V14.2787H19.5208C19.6765 15.027 19.6774 15.8211 19.5229 16.672ZM25.7861 12.091C25.9273 11.9039 26.0396 11.714 26.1481 11.5306L26.2367 11.3823C26.4988 10.9497 26.6229 10.477 26.6057 9.97752C26.5917 9.5575 26.726 6.5709 26.8678 5.53186C27.0198 4.41467 27.2964 3.46131 27.7127 2.61804C28.0677 1.89939 28.4389 1.45413 28.9486 1.13884C29.1436 1.06687 29.2531 1.1085 29.3401 1.16597C30.2065 1.73262 30.6442 4.92359 30.6781 6.99951C30.6781 8.02173 31.4915 8.8521 32.5029 8.8855C32.5137 8.88614 32.5228 8.89175 32.5338 8.89175C32.539 8.89175 32.5439 8.89024 32.5491 8.8902C32.5543 8.89024 32.5592 8.89175 32.5644 8.89175C32.5754 8.89175 32.5845 8.88614 32.5953 8.8855C33.6066 8.8521 34.4201 8.0219 34.4201 7.00838C34.454 4.92359 34.8922 1.73262 35.7581 1.16597C35.8483 1.10739 35.9621 1.06731 36.1645 1.14633C36.8636 1.53134 37.828 3.6553 38.0703 4.80757C38.3829 6.29563 38.5086 7.92119 38.4656 9.92407L38.4629 10.0116C38.4554 10.2012 38.4447 10.4612 38.5602 10.716L38.594 10.7912C38.7933 11.2333 38.9995 11.6901 39.3057 12.116C39.5528 12.4601 39.7562 12.8141 39.9188 13.1787H35.2054V13.0111C35.2054 11.9286 34.3245 11.048 33.2422 11.048H31.8253C30.7431 11.048 29.8622 11.9286 29.8622 13.0111V13.1787H25.1491C25.3171 12.7978 25.5264 12.4349 25.7861 12.091ZM34.1054 13.0111V14.4465C34.1054 14.9224 33.7181 15.3097 33.2422 15.3097H31.8253C31.3495 15.3097 30.9622 14.9224 30.9622 14.4465V13.0111C30.9622 12.5352 31.3495 12.148 31.8253 12.148H33.2422C33.7181 12.148 34.1054 12.5352 34.1054 13.0111ZM40.2768 16.6723C40.0463 17.9463 39.0344 18.8833 37.5708 19.1787C36.5449 19.3855 35.5126 19.2545 34.4196 18.7767C33.1423 18.2176 31.8205 18.2264 30.4922 18.8017C29.9358 19.042 29.3563 19.1897 28.7198 19.2531C27.3018 19.396 25.8591 18.7603 25.2044 17.713C24.8628 17.1662 24.6952 16.5284 24.677 15.7063C24.666 15.2026 24.7078 14.7285 24.799 14.2787H29.8622V14.4465C29.8622 15.5291 30.7431 16.4097 31.8253 16.4097H33.2422C34.3245 16.4097 35.2054 15.5291 35.2054 14.4465V14.2787H40.2747C40.4304 15.027 40.4313 15.8212 40.2768 16.6723Z" fill="#67BC9E"/>
<path d="M43.45 29.7867H41.0724C41.1498 29.3273 41.1881 28.8494 41.177 28.3454C41.1549 27.3222 40.9342 26.5101 40.4819 25.7893C39.6005 24.3855 37.7738 23.5678 35.9262 23.7477C35.185 23.8208 34.4787 24.0004 33.8261 24.2814C32.7728 24.7341 31.7749 24.743 30.7742 24.3079C29.4857 23.7472 28.2042 23.5887 26.9667 23.838C25.0449 24.2236 23.7096 25.4847 23.3949 27.2115C23.231 28.1102 23.2287 28.9685 23.3701 29.7867H20.3179C20.3954 29.3272 20.4339 28.8491 20.423 28.3449C20.4 27.3206 20.1792 26.5085 19.7275 25.7893C18.8461 24.3855 17.0194 23.5678 15.1717 23.7477C14.4208 23.8219 13.7339 23.9964 13.0722 24.2814C12.0194 24.7347 11.0215 24.743 10.0203 24.3079C8.73179 23.7472 7.44971 23.5896 6.21221 23.838C4.29043 24.2239 2.95518 25.485 2.64097 27.2115C2.47711 28.1102 2.47477 28.9685 2.61623 29.7867H0.55C0.245996 29.7867 0 30.033 0 30.3367C0 30.6405 0.245996 30.8867 0.55 30.8867H2.90553C3.11903 31.478 3.4134 32.0456 3.80166 32.5834C4.04336 32.9175 4.21792 33.3029 4.40322 33.7106L4.43491 33.7804C4.44512 33.815 4.44082 33.9217 4.43813 33.992L4.43438 34.1002C4.38979 36.1789 4.523 37.8756 4.85332 39.4405C5.07139 40.4736 6.10049 43.2088 7.3541 43.8466C7.36058 43.85 7.36773 43.8492 7.37428 43.8523C7.38106 43.8554 7.38529 43.8615 7.39224 43.8644C7.61138 43.9557 7.82891 44.0011 8.03945 44.0011C8.32412 44.0011 8.59644 43.9183 8.84727 43.754C10.5059 42.6666 10.6648 37.9717 10.6799 37.0329C10.6799 36.6049 11.0247 36.2572 11.4509 36.2489C11.8771 36.2572 12.2219 36.605 12.2219 37.0417C12.237 37.9717 12.3954 42.6666 14.054 43.754C14.3048 43.9186 14.5771 44.0011 14.8618 44.0011C15.0724 44.0011 15.2899 43.9557 15.509 43.8644C15.5332 43.8542 15.5568 43.8423 15.5799 43.8289C16.4936 43.2837 16.9646 42.5009 17.2729 41.8797C17.7434 40.9325 18.0539 39.8731 18.2225 38.6418C18.3708 37.5576 18.5099 34.505 18.4932 34.0318C18.4835 33.7484 18.5523 33.4898 18.7038 33.2414L18.7988 33.0827C18.8901 32.9285 18.9809 32.7733 19.091 32.6288C19.5035 32.0851 19.8131 31.5051 20.0333 30.8867H23.6594C23.8729 31.478 24.1673 32.0456 24.5556 32.5834C24.7983 32.9191 24.974 33.3061 25.1598 33.7159L25.1894 33.7804C25.1996 33.815 25.1953 33.9217 25.1926 33.992L25.1888 34.1C25.1437 36.1754 25.2764 37.8724 25.6072 39.4407C25.8258 40.4741 26.856 43.2099 28.1085 43.8466C28.115 43.8499 28.1221 43.8492 28.1287 43.8522C28.1355 43.8554 28.1397 43.8615 28.1467 43.8644C28.3658 43.9557 28.5834 44.0011 28.7939 44.0011C29.078 44.0011 29.3509 43.9186 29.6012 43.7542C31.2598 42.6669 31.4188 37.972 31.4338 37.0329C31.4338 36.6049 31.7786 36.2572 32.2048 36.2489C32.631 36.2572 32.9758 36.605 32.9758 37.0417C32.9909 37.9717 33.1499 42.6666 34.8084 43.754C35.0593 43.9183 35.3316 44.0011 35.6163 44.0011C35.8268 44.0011 36.0443 43.9557 36.2635 43.8644C36.2882 43.8542 36.3118 43.8423 36.3344 43.8289C37.2475 43.2835 37.7185 42.5009 38.0268 41.8797C38.4968 40.9331 38.8072 39.8742 38.977 38.6415C39.1252 37.5544 39.2643 34.5033 39.2477 34.0318C39.238 33.7484 39.3067 33.4898 39.4577 33.2414L39.5517 33.0848C39.6435 32.9296 39.7354 32.7736 39.8449 32.6288C40.2575 32.0849 40.5673 31.5049 40.7875 30.8867H43.45C43.754 30.8867 44 30.6405 44 30.3367C44 30.033 43.754 29.7867 43.45 29.7867ZM3.72271 27.4087C3.95366 26.1419 4.96504 25.2103 6.4292 24.9165C7.45776 24.7097 8.48901 24.8413 9.58149 25.3166C10.8587 25.8728 12.1795 25.8639 13.5072 25.2917C14.0631 25.0521 14.6432 24.9052 15.2802 24.8424C16.6939 24.7 18.1414 25.3322 18.7961 26.3742C19.1377 26.918 19.3048 27.5521 19.323 28.369C19.334 28.8692 19.2923 29.34 19.2013 29.7867H14.1378V29.6296C14.1378 28.5471 13.2569 27.6662 12.1747 27.6662H10.7578C9.67549 27.6662 8.79463 28.5471 8.79463 29.6296V29.7867H3.72499C3.56983 29.0432 3.56886 28.2542 3.72271 27.4087ZM13.0378 29.6296V31.0438C13.0378 31.52 12.6505 31.9072 12.1747 31.9072H10.7578C10.2819 31.9072 9.89463 31.52 9.89463 31.0438V29.6296C9.89463 29.1535 10.2819 28.7662 10.7578 28.7662H12.1747C12.6505 28.7662 13.0378 29.1535 13.0378 29.6296ZM18.215 31.9636C18.0732 32.1497 17.9615 32.3385 17.853 32.5211L17.7644 32.6694C17.5012 33.1007 17.3771 33.5717 17.3943 34.0696C17.4083 34.4875 17.274 37.4588 17.1322 38.4925C16.9802 39.604 16.7041 40.552 16.2878 41.3907C15.9328 42.1059 15.5617 42.5484 15.0525 42.8621C14.8559 42.9346 14.7458 42.8922 14.6572 42.8342C13.7924 42.2675 13.3558 39.0954 13.3219 37.0329C13.3219 36.0143 12.5083 35.1867 11.4969 35.1535C11.4862 35.1529 11.4771 35.1473 11.4662 35.1473C11.461 35.1473 11.4561 35.1489 11.4509 35.1489C11.4457 35.1489 11.4408 35.1473 11.4356 35.1473C11.4247 35.1473 11.4157 35.1529 11.4049 35.1535C10.3935 35.1867 9.57988 36.0141 9.57988 37.024C9.54605 39.0954 9.10884 42.2675 8.24409 42.8342C8.15339 42.8933 8.03955 42.9342 7.83495 42.855C7.13634 42.4727 6.17152 40.3596 5.92969 39.2133C5.61709 37.733 5.49141 36.1157 5.53438 34.1233L5.53706 34.0361C5.54458 33.8467 5.55532 33.5878 5.43931 33.3327L5.40493 33.2562C5.20566 32.8168 4.99941 32.3627 4.69326 31.9392C4.4473 31.5984 4.24457 31.2478 4.08247 30.8867H8.79463V31.0438C8.79463 32.1264 9.67549 33.0072 10.7578 33.0072H12.1747C13.2569 33.0072 14.1378 32.1264 14.1378 31.0438V30.8867H18.849C18.6816 31.2637 18.4733 31.6231 18.215 31.9636ZM24.4766 27.4089C24.7081 26.1419 25.7195 25.2103 27.1836 24.9165C28.2101 24.7094 29.2418 24.8407 30.3354 25.3166C31.6293 25.8793 32.9135 25.8715 34.2611 25.2917C34.817 25.0524 35.3971 24.9052 36.0347 24.8424C37.4489 24.7 38.8964 25.3322 39.55 26.3739C39.8922 26.9191 40.0592 27.5529 40.077 28.3693C40.0879 28.8692 40.0462 29.34 39.9553 29.7867H34.9137V29.6296C34.9137 28.5471 34.0329 27.6662 32.9506 27.6662H31.5337C30.4514 27.6662 29.5706 28.5471 29.5706 29.6296V29.7867H24.4789C24.3237 29.0433 24.3228 28.2543 24.4766 27.4089ZM33.8137 29.6296V31.0438C33.8137 31.52 33.4265 31.9072 32.9506 31.9072H31.5337C31.0578 31.9072 30.6706 31.52 30.6706 31.0438V29.6296C30.6706 29.1535 31.0578 28.7662 31.5337 28.7662H32.9506C33.4265 28.7662 33.8137 29.1535 33.8137 29.6296ZM38.9684 31.9644C38.8271 32.1505 38.7148 32.3399 38.6058 32.5228L38.5177 32.6699C38.2556 33.1015 38.1315 33.5723 38.1487 34.0696C38.1627 34.4862 38.0284 37.4561 37.8872 38.4922C37.7341 39.6045 37.4575 40.5525 37.0417 41.3907C36.6867 42.1056 36.3156 42.5484 35.8069 42.8621C35.6104 42.9346 35.5002 42.8922 35.4116 42.8342C34.5469 42.2675 34.1097 39.0954 34.0758 37.0329C34.0758 36.0143 33.2622 35.1867 32.2508 35.1535C32.2401 35.1529 32.231 35.1473 32.2201 35.1473C32.2149 35.1473 32.21 35.1489 32.2048 35.1489C32.1996 35.1489 32.1947 35.1473 32.1895 35.1473C32.1786 35.1473 32.1696 35.1529 32.1588 35.1535C31.1474 35.1867 30.3338 36.0141 30.3338 37.024C30.3005 39.0948 29.8638 42.2667 28.9985 42.8342C28.9083 42.8933 28.794 42.9342 28.5894 42.855C27.8913 42.4732 26.926 40.3599 26.6836 39.2133C26.371 37.73 26.2453 36.1128 26.2888 34.1233L26.2915 34.0361C26.299 33.8467 26.3098 33.5878 26.1938 33.3327L26.1615 33.2615C25.9612 32.8203 25.7544 32.364 25.4472 31.9392C25.2012 31.5984 24.9985 31.2478 24.8364 30.8867H29.5706V31.0438C29.5706 32.1264 30.4514 33.0072 31.5337 33.0072H32.9506C34.0329 33.0072 34.9137 32.1264 34.9137 31.0438V30.8867H39.603C39.4354 31.2638 39.2269 31.6235 38.9684 31.9644Z" fill="#67BC9E"/>
</svg>
