<svg width="53" height="53" viewBox="0 0 53 53" fill="none" xmlns="http://www.w3.org/2000/svg">
<path d="M47.1649 36.073C45.2551 35.21 44.1676 34.4965 43.3181 33.2937L43.42 33.0151C46.7503 24.1812 47.0901 16.822 44.3851 12.3914C43.7096 11.2463 42.7735 10.2766 41.6528 9.5611C40.5321 8.8456 39.2584 8.40446 37.9352 8.27351C35.2591 7.91338 32.542 8.51545 30.2687 9.97233C29.3449 10.5615 28.272 10.8746 27.1763 10.8746C26.0805 10.8746 25.0076 10.5615 24.0838 9.97233C21.81 8.51656 19.0934 7.91458 16.4173 8.27351C15.0941 8.40446 13.8204 8.8456 12.6997 9.5611C11.579 10.2766 10.6429 11.2463 9.9674 12.3914C9.79973 12.66 9.64549 12.9367 9.50524 13.2205C8.95836 12.3867 8.48534 11.5068 8.09155 10.5907C8.03749 10.4721 7.95044 10.3715 7.84077 10.3009C7.73111 10.2304 7.60346 10.1929 7.47307 10.1929C7.34267 10.1929 7.21503 10.2304 7.10537 10.3009C6.9957 10.3715 6.90865 10.4721 6.85458 10.5907C5.2438 14.165 3.97285 15.4357 0.397864 17.0462C0.279205 17.1003 0.178601 17.1873 0.108056 17.2969C0.0375101 17.4066 0 17.5342 0 17.6646C0 17.7949 0.0375101 17.9226 0.108056 18.0322C0.178601 18.1419 0.279205 18.2289 0.397864 18.2829C3.97285 19.8934 5.2438 21.1641 6.85458 24.7385C6.90865 24.8571 6.9957 24.9577 7.10537 25.0282C7.21503 25.0987 7.34267 25.1362 7.47307 25.1362C7.60346 25.1362 7.73111 25.0987 7.84077 25.0282C7.95044 24.9577 8.03749 24.8571 8.09155 24.7385L8.48575 23.9094C8.98219 27.0105 9.80225 30.051 10.9325 32.9811C16.5533 47.9307 18.4087 53 21.4264 53C21.5944 53.001 21.7568 52.9398 21.8824 52.8281C22.0079 52.7164 22.0876 52.5622 22.106 52.3952C22.7857 46.2795 24.7703 37.6834 27.1831 37.6834C29.5958 37.6834 31.6008 46.2863 32.2601 52.3952C32.2786 52.5622 32.3582 52.7164 32.4838 52.8281C32.6093 52.9398 32.7717 53.001 32.9397 53C35.2845 53 36.9565 49.881 40.2936 41.2781C40.4771 41.6179 40.6538 41.9577 40.8441 42.4062C40.8982 42.5248 40.9852 42.6254 41.0949 42.6959C41.2046 42.7664 41.3322 42.8039 41.4626 42.8039C41.593 42.8039 41.7206 42.7664 41.8303 42.6959C41.94 42.6254 42.027 42.5248 42.0811 42.4062C43.3724 39.5521 44.3239 38.6008 47.1785 37.3097C47.2972 37.2557 47.3978 37.1686 47.4683 37.059C47.5388 36.9493 47.5764 36.8217 47.5764 36.6913C47.5764 36.561 47.5388 36.4333 47.4683 36.3237C47.3978 36.2141 47.2972 36.127 47.1785 36.073H47.1649ZM9.98099 15.857C10.8039 16.5762 11.718 17.184 12.6996 17.6646C11.5147 18.2302 10.4345 18.9931 9.50524 19.9206C9.49337 18.5515 9.65321 17.1864 9.98099 15.857ZM7.46627 22.8901C6.4054 20.5793 4.55103 18.7252 2.23973 17.6646C4.55103 16.6039 6.4054 14.7499 7.46627 12.439C7.86898 13.2463 8.35169 14.0112 8.90714 14.7222C8.24879 16.9418 8.01815 19.2662 8.22749 21.5719C7.96922 21.9728 7.71774 22.4213 7.46627 22.8901ZM33.5106 51.4711C33.0485 47.6521 31.3289 36.3244 27.1763 36.3244C23.0236 36.3244 21.304 47.6521 20.8419 51.4711C18.9117 50.3838 16.5329 44.0506 12.2239 32.5054C10.8837 29.1182 10.0037 25.5666 9.60718 21.9456C10.7354 20.3215 12.1015 19.3838 14.5415 18.2829C14.6601 18.2289 14.7607 18.1419 14.8313 18.0322C14.9018 17.9226 14.9393 17.7949 14.9393 17.6646C14.9393 17.5342 14.9018 17.4066 14.8313 17.2969C14.7607 17.1873 14.6601 17.1003 14.5415 17.0462C13.0227 16.4488 11.6369 15.5574 10.4635 14.4232C10.6526 13.9524 10.8799 13.4979 11.1432 13.0642C11.7102 12.0961 12.4985 11.276 13.4436 10.6713C14.3887 10.0665 15.4637 9.69426 16.5804 9.585C18.9508 9.25816 21.3602 9.78571 23.377 11.0732C24.5189 11.8053 25.8469 12.1944 27.2034 12.1944C28.56 12.1944 29.888 11.8053 31.0299 11.0732C33.0465 9.78515 35.456 9.25756 37.8264 9.585C38.9432 9.69426 40.0182 10.0665 40.9633 10.6713C41.9084 11.276 42.6967 12.0961 43.2637 13.0642C45.6765 17.0054 45.3842 23.6104 42.4685 31.724C42.3529 31.4862 42.2306 31.2415 42.1083 30.9697C42.0542 30.8511 41.9672 30.7505 41.8575 30.68C41.7478 30.6094 41.6202 30.5719 41.4898 30.5719C41.3594 30.5719 41.2317 30.6094 41.1221 30.68C41.0124 30.7505 40.9254 30.8511 40.8713 30.9697C39.58 33.8237 38.6284 34.7751 35.7739 36.0662C35.6552 36.1202 35.5546 36.2073 35.4841 36.3169C35.4135 36.4266 35.376 36.5542 35.376 36.6845C35.376 36.8149 35.4135 36.9425 35.4841 37.0522C35.5546 37.1618 35.6552 37.2489 35.7739 37.3029C37.1833 37.8255 38.4351 38.7004 39.41 39.8443C36.6914 46.7551 34.9787 50.642 33.5106 51.4711ZM37.5886 36.6913C39.2727 35.8622 40.6315 34.4941 41.449 32.8044C41.5645 33.0287 41.6869 33.2325 41.8024 33.4296C41.1228 35.2168 40.5043 36.8884 39.9266 38.4105C39.2345 37.7155 38.4361 37.1352 37.5614 36.6913H37.5886ZM41.449 40.5782C41.2723 40.2385 41.0888 39.9395 40.9053 39.6541C41.4762 38.1659 42.0879 36.535 42.7607 34.7411C43.4902 35.5461 44.3639 36.2075 45.3366 36.6913C43.6423 37.5156 42.2734 38.8842 41.449 40.5782ZM52.6021 4.13519C50.5088 3.19065 49.8088 2.49073 48.864 0.39779C48.81 0.279152 48.7229 0.178568 48.6133 0.108035C48.5036 0.037503 48.3759 0 48.2456 0C48.1152 0 47.9875 0.037503 47.8778 0.108035C47.7682 0.178568 47.6811 0.279152 47.6271 0.39779C46.6823 2.49073 45.9823 3.19065 43.889 4.13519C43.7703 4.18924 43.6697 4.27628 43.5992 4.38593C43.5286 4.49557 43.4911 4.62319 43.4911 4.75356C43.4911 4.88393 43.5286 5.01155 43.5992 5.12119C43.6697 5.23084 43.7703 5.31788 43.889 5.37193C45.9823 6.31647 46.6823 7.01638 47.6271 9.10933C47.6811 9.22797 47.7682 9.32855 47.8778 9.39908C47.9875 9.46961 48.1152 9.50712 48.2456 9.50712C48.3759 9.50712 48.5036 9.46961 48.6133 9.39908C48.7229 9.32855 48.81 9.22797 48.864 9.10933C49.8088 7.01638 50.5088 6.31647 52.6021 5.37193C52.7208 5.31788 52.8214 5.23084 52.8919 5.12119C52.9625 5.01155 53 4.88393 53 4.75356C53 4.62319 52.9625 4.49557 52.8919 4.38593C52.8214 4.27628 52.7208 4.18924 52.6021 4.13519ZM48.2456 7.32217C47.6591 6.23304 46.7658 5.33993 45.6765 4.75356C46.7658 4.16719 47.6591 3.27408 48.2456 2.18495C48.832 3.27408 49.7253 4.16719 50.8146 4.75356C49.7253 5.33993 48.832 6.23304 48.2456 7.32217Z" fill="#67BC9E"/>
</svg>
