<svg width="45" height="45" viewBox="0 0 45 45" fill="none" xmlns="http://www.w3.org/2000/svg">
<path d="M44.9952 8.13964C45.005 8.06441 44.9998 7.98798 44.98 7.91475C44.9602 7.84151 44.9262 7.7729 44.8798 7.71284L41.3431 3.14495C41.2496 3.02435 41.1121 2.94572 40.9607 2.92626C40.8093 2.9068 40.6564 2.94811 40.5354 3.04113L37.8526 5.11168C37.2062 3.73155 36.2114 2.54355 34.966 1.6647C33.7207 0.785846 32.2678 0.246466 30.7504 0.0996853C28.1764 -0.233685 25.5636 0.274139 23.3021 1.54734C22.1743 2.1863 20.9002 2.52216 19.6039 2.52216C18.3076 2.52216 17.0334 2.1863 15.9057 1.54734C13.6441 0.274139 11.0313 -0.233685 8.45733 0.0996853C7.08793 0.226006 5.76814 0.675677 4.6066 1.41168C3.44507 2.14767 2.47502 3.14895 1.77632 4.33306C-0.923774 8.7856 -0.537222 16.0873 2.87829 24.9001C8.67657 39.9361 10.6382 45 13.6383 45C13.7809 45.0008 13.9188 44.9489 14.0254 44.8541C14.1319 44.7593 14.1995 44.6284 14.2152 44.4867C14.8556 38.7191 16.8807 29.5603 19.6097 29.5603C22.3386 29.5603 24.3637 38.7134 25.0041 44.4867C25.0198 44.6284 25.0874 44.7593 25.194 44.8541C25.3005 44.9489 25.4384 45.0008 25.581 45C28.5811 45 30.537 39.9361 36.3468 24.9001C38.0776 20.413 39.0353 16.3526 39.2027 12.8229L44.7759 8.52029C44.8964 8.42728 44.9752 8.29046 44.9952 8.13964ZM35.2621 24.4848C30.5081 36.7812 28.1484 42.8948 26.0714 43.7427C25.6733 40.5417 23.879 28.4068 19.6097 28.4068C15.3403 28.4068 13.5402 40.5186 13.1421 43.7427C11.0651 42.8948 8.70542 36.7812 3.9514 24.4848C0.680129 16.0123 0.25896 9.06821 2.79751 4.93288C3.40319 3.90607 4.24313 3.03696 5.2488 2.39647C6.25447 1.75598 7.39738 1.36225 8.58426 1.24743C10.9161 0.942901 13.2839 1.40012 15.3345 2.55089C16.6376 3.28516 18.1081 3.67094 19.6039 3.67094C21.0997 3.67094 22.5702 3.28516 23.8733 2.55089C25.9218 1.40018 28.2878 0.942919 30.6177 1.24743C31.9843 1.38407 33.2894 1.88407 34.3973 2.69547C35.5053 3.50687 36.3756 4.60006 36.918 5.86146L22.5694 16.8948L16.6326 11.8078C16.575 11.7581 16.5082 11.7203 16.4359 11.6965C16.3636 11.6728 16.2873 11.6635 16.2115 11.6694C16.06 11.6806 15.919 11.751 15.8191 11.8655L12.0632 16.2488C11.9617 16.3628 11.9095 16.5125 11.9182 16.6649C11.9268 16.8174 11.9956 16.9602 12.1094 17.062L21.9867 25.5057C22.0912 25.595 22.2242 25.6441 22.3617 25.6441C22.4881 25.643 22.611 25.6027 22.7136 25.5288L37.9738 13.7572C37.5721 17.4415 36.6595 21.052 35.2621 24.4848ZM22.379 24.3234L13.3152 16.5602L16.3211 13.0536L22.1771 18.0771C22.2798 18.1605 22.4082 18.206 22.5405 18.206C22.6729 18.206 22.8012 18.1605 22.904 18.0771L40.7893 4.28692L43.6105 7.94354L22.379 24.3234Z" fill="#67BC9E"/>
</svg>
