<svg width="14" height="14" viewBox="0 0 14 14" fill="none" xmlns="http://www.w3.org/2000/svg">
<path d="M7 0C3.1402 0 0 3.1402 0 7C0 10.8598 3.1402 14 7 14C10.8598 14 14 10.8598 14 7C14 3.1402 10.8598 0 7 0ZM7 12.5105C3.96153 12.5105 1.48934 10.0386 1.48934 7C1.48934 3.96138 3.96153 1.48948 7 1.48948C10.0385 1.48948 12.5107 3.96138 12.5107 7C12.5107 10.0386 10.0385 12.5105 7 12.5105Z" fill="#67BC9E"/>
<path d="M10.6481 6.78384H7.50232V3.00142C7.50232 2.68312 7.24425 2.42505 6.92595 2.42505C6.60765 2.42505 6.34958 2.68312 6.34958 3.00142V7.36021C6.34958 7.67851 6.60765 7.93657 6.92595 7.93657H10.6481C10.9664 7.93657 11.2245 7.67851 11.2245 7.36021C11.2245 7.04191 10.9664 6.78384 10.6481 6.78384Z" fill="#67BC9E"/>
</svg>
