<svg width="12" height="7" viewBox="0 0 12 7" fill="none" xmlns="http://www.w3.org/2000/svg">
<path d="M2.56111 1.1784L5.99604 4.16807L9.50496 1.26559C9.58869 1.19634 9.68774 1.14181 9.79646 1.10512C9.90518 1.06844 10.0214 1.05031 10.1386 1.05179C10.2558 1.05326 10.3715 1.07429 10.4793 1.1137C10.5871 1.1531 10.6847 1.2101 10.7667 1.28144C10.8486 1.35277 10.9133 1.43705 10.957 1.52947C11.0007 1.62188 11.0225 1.72061 11.0213 1.82002C11.02 1.91944 10.9957 2.01759 10.9497 2.10887C10.9037 2.20016 10.837 2.28279 10.7532 2.35205L6.6022 5.78564C6.2495 6.07738 5.68576 6.07031 5.3405 5.7698L1.27701 2.23305C1.19494 2.16176 1.13017 2.0775 1.08642 1.98508C1.04267 1.89266 1.0208 1.7939 1.02204 1.69446C1.02329 1.59501 1.04764 1.49684 1.0937 1.40555C1.13976 1.31426 1.20662 1.23164 1.29045 1.16244C1.64306 0.87829 2.21584 0.877889 2.56111 1.1784Z" fill="#67BC9E"/>
</svg>
