<svg width="10" height="5" viewBox="0 0 10 5" fill="none" xmlns="http://www.w3.org/2000/svg">
<path d="M8.46754 4.77825L4.99534 1.83195L1.52313 4.77825C1.44028 4.84855 1.34192 4.90432 1.23367 4.94237C1.12542 4.98042 1.0094 5 0.892231 5C0.775062 5 0.65904 4.98042 0.550789 4.94237C0.442539 4.90432 0.34418 4.84855 0.261329 4.77825C0.178477 4.70795 0.112756 4.62449 0.0679172 4.53263C0.0230784 4.44078 -8.7298e-10 4.34233 0 4.24291C8.72981e-10 4.14348 0.0230784 4.04503 0.0679172 3.95318C0.112756 3.86132 0.178477 3.77786 0.261329 3.70756L4.36891 0.222112C4.71792 -0.0740369 5.2817 -0.0740369 5.63071 0.222112L9.73829 3.70756C9.82125 3.77781 9.88707 3.86125 9.93198 3.95312C9.97688 4.04498 10 4.14345 10 4.24291C10 4.34236 9.97688 4.44083 9.93198 4.53269C9.88707 4.62456 9.82125 4.708 9.73829 4.77825C9.38928 5.06681 8.81655 5.0744 8.46754 4.77825Z" fill="#67BC9E"/>
</svg>
