<svg width="27" height="27" viewBox="0 0 27 27" fill="none" xmlns="http://www.w3.org/2000/svg">
<path d="M15.2824 10.5574H12.6826V7.95762C12.6826 7.36172 12.2027 6.88184 11.6068 6.88184C11.0109 6.88184 10.5311 7.36172 10.5311 7.95762V10.5574H7.93125C7.33535 10.5574 6.85547 11.0373 6.85547 11.6332C6.85547 12.2291 7.33535 12.709 7.93125 12.709H10.5311V15.3088C10.5311 15.9047 11.0109 16.3846 11.6068 16.3846C12.2027 16.3846 12.6826 15.9047 12.6826 15.3088V12.709H15.2824C15.8783 12.709 16.3582 12.2291 16.3582 11.6332C16.3582 11.0373 15.873 10.5574 15.2824 10.5574Z" fill="#F39035"/>
<path d="M11.6121 20.4978C6.71309 20.4978 2.74219 16.5322 2.74219 11.6332C2.74219 6.73417 6.71309 2.76855 11.6121 2.76855C16.5111 2.76855 20.4768 6.73945 20.4768 11.6332C20.4768 16.5269 16.5059 20.4978 11.6121 20.4978ZM26.1035 24.6111L20.1287 18.6363C21.6949 16.7326 22.6389 14.291 22.6389 11.6332C22.6389 5.54238 17.7029 0.601166 11.6068 0.601166C5.51074 0.601166 0.580078 5.54238 0.580078 11.6332C0.580078 17.724 5.51602 22.6652 11.6121 22.6652C14.2699 22.6652 16.7062 21.7266 18.61 20.1603L24.5848 26.1352C24.859 26.4146 25.6975 26.5518 26.1088 26.1352C26.5254 25.7133 26.5254 25.033 26.1035 24.6111Z" fill="#F39035"/>
</svg>
